<svg width="762" height="467" viewBox="0 0 762 467" fill="none" xmlns="http://www.w3.org/2000/svg">
<rect x="0.5" y="0.5" width="760.6" height="465.796" rx="15.5" stroke="white" stroke-opacity="0.1"/>
<g clip-path="url(#clip0_1011_2045)">
<path d="M378.801 190.95H595.801" stroke="#FF5702" stroke-opacity="0.18" stroke-width="1.89898" stroke-dasharray="7.6 11.39"/>
<path d="M625.868 225.08C644.746 225.08 660.05 209.776 660.05 190.898C660.05 172.02 644.746 156.717 625.868 156.717C606.99 156.717 591.686 172.02 591.686 190.898C591.686 209.776 606.99 225.08 625.868 225.08Z" fill="url(#paint0_radial_1011_2045)"/>
<path d="M641.06 160.514H610.676C602.286 160.514 595.484 167.316 595.484 175.706V206.09C595.484 214.48 602.286 221.282 610.676 221.282H641.06C649.45 221.282 656.252 214.48 656.252 206.09V175.706C656.252 167.316 649.45 160.514 641.06 160.514Z" fill="#FF5702" fill-opacity="0.08" stroke="#FF5702" stroke-opacity="0.6" stroke-width="1.89898"/>
<g clip-path="url(#clip1_1011_2045)">
<path d="M615.479 196.554L622.162 192.804L622.274 192.477L622.162 192.296H621.836L620.717 192.227L616.899 192.124L613.587 191.986L610.379 191.814L609.571 191.642L608.814 190.645L608.891 190.146L609.571 189.69L610.542 189.776L612.693 189.922L615.918 190.146L618.258 190.283L621.724 190.645H622.274L622.352 190.421L622.162 190.283L622.016 190.146L618.679 187.884L615.067 185.493L613.175 184.116L612.151 183.42L611.635 182.766L611.411 181.338L612.34 180.315L613.587 180.401L613.906 180.487L615.17 181.459L617.871 183.549L621.397 186.146L621.913 186.576L622.12 186.43L622.145 186.327L621.913 185.94L619.995 182.474L617.948 178.947L617.036 177.485L616.796 176.608C616.71 176.246 616.649 175.945 616.649 175.576L617.707 174.139L618.292 173.95L619.703 174.139L620.296 174.655L621.173 176.659L622.593 179.816L624.794 184.108L625.439 185.381L625.784 186.559L625.912 186.92H626.136V186.714L626.317 184.297L626.652 181.33L626.979 177.511L627.091 176.436L627.624 175.145L628.682 174.449L629.508 174.844L630.187 175.816L630.093 176.444L629.688 179.068L628.897 183.179L628.381 185.931H628.682L629.026 185.587L630.419 183.738L632.759 180.814L633.791 179.652L634.995 178.371L635.769 177.76H637.232L638.307 179.36L637.825 181.011L636.32 182.921L635.073 184.538L633.284 186.946L632.166 188.873L632.269 189.028L632.535 189.002L636.578 188.142L638.762 187.746L641.369 187.299L642.547 187.849L642.676 188.408L642.212 189.552L639.425 190.24L636.156 190.894L631.288 192.047L631.228 192.09L631.297 192.176L633.49 192.382L634.428 192.434H636.724L640.999 192.752L642.117 193.491L642.788 194.395L642.676 195.083L640.956 195.96L638.633 195.41L633.215 194.119L631.357 193.655H631.099V193.81L632.647 195.324L635.485 197.887L639.038 201.189L639.218 202.007L638.762 202.652L638.281 202.583L635.159 200.235L633.954 199.177L631.228 196.88H631.047V197.121L631.675 198.042L634.995 203.03L635.167 204.561L634.926 205.06L634.066 205.361L633.12 205.189L631.176 202.462L629.172 199.392L627.555 196.64L627.357 196.751L626.403 207.03L625.956 207.554L624.923 207.95L624.063 207.296L623.607 206.238L624.063 204.148L624.614 201.422L625.061 199.254L625.465 196.562L625.706 195.668L625.689 195.607L625.491 195.633L623.461 198.42L620.373 202.592L617.931 205.206L617.346 205.438L616.331 204.914L616.425 203.976L616.993 203.142L620.373 198.841L622.412 196.175L623.728 194.636L623.719 194.412H623.642L614.662 200.243L613.062 200.45L612.374 199.805L612.461 198.747L612.787 198.403L615.488 196.545L615.479 196.554Z" fill="#D97757"/>
</g>
<path d="M337.716 203.221L525.643 94.7214" stroke="#FF5702" stroke-opacity="0.18" stroke-width="1.89898" stroke-dasharray="7.6 11.39"/>
<path d="M568.749 109.246C585.097 99.8067 590.699 78.9015 581.26 62.5526C571.821 46.2037 550.916 40.6022 534.567 50.0412C518.218 59.4802 512.616 80.3855 522.055 96.7343C531.494 113.083 552.4 118.685 568.749 109.246Z" fill="url(#paint1_radial_1011_2045)"/>
<path d="M549.622 45.7344L523.309 60.9263C516.043 65.1214 513.553 74.4126 517.749 81.6788L532.94 107.992C537.136 115.258 546.427 117.748 553.693 113.552L580.006 98.3606C587.272 94.1655 589.762 84.8743 585.567 77.6081L570.375 51.295C566.18 44.0288 556.888 41.5393 549.622 45.7344Z" fill="#FF5702" fill-opacity="0.08" stroke="#FF5702" stroke-opacity="0.6" stroke-width="1.89898"/>
<g clip-path="url(#clip2_1011_2045)">
<path opacity="0.987" fill-rule="evenodd" clip-rule="evenodd" d="M542.201 66.0569C543.559 65.0564 544.418 64.5604 546.072 63.8219C549.07 62.6363 552.367 62.4347 555.486 63.2465C554.876 65.2922 554.294 67.3462 553.74 69.408C550.01 68.7312 546.931 69.8553 544.505 72.7804C542.841 75.1291 542.239 77.7271 542.697 80.5742C540.62 80.3314 538.546 80.0524 536.478 79.7374C536.35 79.7424 536.227 79.7883 536.127 79.8683C535.872 74.2385 537.896 69.6345 542.198 66.0561" fill="#F44336"/>
<path opacity="0.997" fill-rule="evenodd" clip-rule="evenodd" d="M536.123 79.8708C536.226 79.7879 536.344 79.7439 536.476 79.7387C538.544 80.0537 540.618 80.3327 542.695 80.5755C542.991 81.6169 543.383 82.6286 543.866 83.5978C544.438 84.4745 545.095 85.2802 545.836 86.0148L543.395 92.217C539.056 89.2429 536.632 85.1275 536.123 79.8708Z" fill="#FFC107"/>
<path opacity="0.999" fill-rule="evenodd" clip-rule="evenodd" d="M567.307 84.2162C565.185 83.7879 563.041 83.4746 560.885 83.2776C561.795 81.307 561.868 79.2817 561.105 77.2015L553.581 81.5455L550.564 76.3205C554.883 73.7793 559.241 71.3119 563.639 68.9185C567.04 72.9097 568.415 77.4848 567.764 82.644C567.639 83.175 567.485 83.7005 567.307 84.2162Z" fill="#448AFF"/>
<path opacity="0.993" fill-rule="evenodd" clip-rule="evenodd" d="M545.837 86.0167C549.835 89.15 553.946 89.317 558.169 86.5177C559.316 85.6656 560.246 84.5557 560.885 83.2775C563.044 83.4767 565.185 83.7896 567.307 84.2161C566.234 87.507 564.078 90.3372 561.19 92.2449C560.541 92.6917 559.858 93.0861 559.147 93.4243C553.702 95.7665 548.452 95.364 543.395 92.2168L545.837 86.0167Z" fill="#43A047"/>
</g>
<path d="M337.602 171.951L507.887 284.874" stroke="#FF5702" stroke-opacity="0.18" stroke-width="1.89898" stroke-dasharray="7.6 11.39"/>
<path d="M513.392 330.026C528.963 340.7 550.238 336.729 560.912 321.158C571.585 305.587 567.614 284.311 552.043 273.638C536.472 262.965 515.196 266.935 504.523 282.507C493.85 298.078 497.821 319.353 513.392 330.026Z" fill="url(#paint2_radial_1011_2045)"/>
<path d="M562.426 285.36L537.365 268.181C530.444 263.438 520.989 265.202 516.245 272.123L499.067 297.185C494.323 304.105 496.088 313.561 503.008 318.304L528.07 335.483C534.99 340.226 544.446 338.462 549.19 331.541L566.368 306.48C571.112 299.559 569.347 290.103 562.426 285.36Z" fill="#FF5702" fill-opacity="0.08" stroke="#FF5702" stroke-opacity="0.6" stroke-width="1.89898"/>
<path fill-rule="evenodd" clip-rule="evenodd" d="M525.52 293.902C523.772 293.902 522.196 294.953 521.524 296.566C520.911 298.038 520.083 301.687 519.709 303.429C519.605 303.911 519.562 304.326 519.595 304.698C519.707 305.944 520.093 306.54 520.454 306.846C520.833 307.167 521.409 307.36 522.249 307.36C523.175 307.36 524.036 306.883 524.526 306.098L526.856 302.37L529.954 297.207L529.232 296.004C529.232 296.004 529.232 296.004 529.232 296.004C528.449 294.7 527.04 293.902 525.52 293.902ZM531.606 294.455C530.301 292.352 528 291.069 525.52 291.069C522.628 291.069 520.021 292.807 518.909 295.476C518.172 297.245 517.29 301.196 516.939 302.834C516.803 303.465 516.705 304.188 516.773 304.95C516.93 306.706 517.537 308.087 518.622 309.007C519.689 309.912 521.011 310.194 522.249 310.194C524.152 310.194 525.921 309.213 526.929 307.6L529.266 303.861L529.279 303.839L531.606 299.961L533.933 303.839L533.947 303.861L536.283 307.6C537.292 309.213 539.06 310.194 540.963 310.194C542.355 310.194 543.802 309.797 544.889 308.656C545.967 307.524 546.481 305.879 546.481 303.819C546.481 302.511 545.985 300.608 545.526 299.085C545.047 297.497 544.53 296.082 544.371 295.654C544.334 295.554 544.29 295.44 544.236 295.32C543.089 292.739 540.527 291.069 537.692 291.069C535.212 291.069 532.911 292.352 531.606 294.455ZM533.258 297.207L536.356 302.37L538.686 306.098C539.177 306.883 540.037 307.36 540.963 307.36C541.836 307.36 542.439 307.119 542.837 306.702C543.244 306.274 543.648 305.44 543.648 303.819C543.648 302.991 543.287 301.474 542.813 299.903C542.359 298.397 541.865 297.044 541.715 296.641C541.689 296.57 541.668 296.517 541.648 296.471C540.954 294.912 539.406 293.902 537.692 293.902C536.172 293.902 534.763 294.7 533.981 296.004L533.258 297.207Z" fill="#4D5CE4"/>
<path d="M382.599 190.95L166.599 190.95" stroke="#FF5702" stroke-opacity="0.18" stroke-width="1.89898" stroke-dasharray="7.6 11.39"/>
<path d="M135.932 225.08C154.81 225.08 170.113 209.777 170.113 190.899C170.113 172.02 154.81 156.717 135.932 156.717C117.054 156.717 101.75 172.02 101.75 190.899C101.75 209.777 117.054 225.08 135.932 225.08Z" fill="url(#paint3_radial_1011_2045)"/>
<path d="M151.123 160.515H120.74C112.349 160.515 105.548 167.316 105.548 175.707V206.09C105.548 214.481 112.349 221.282 120.74 221.282H151.123C159.514 221.282 166.315 214.481 166.315 206.09V175.707C166.315 167.316 159.514 160.515 151.123 160.515Z" fill="#FF5702" fill-opacity="0.08" stroke="#FF5702" stroke-opacity="0.6"/>
<g clip-path="url(#clip3_1011_2045)">
<path d="M126.39 195.207C126.39 197.155 124.802 198.745 122.855 198.745C120.908 198.745 119.318 197.155 119.318 195.207C119.318 193.26 120.908 191.67 122.855 191.67H126.39L126.39 195.207ZM128.172 195.207C128.172 193.26 129.762 191.67 131.709 191.67C133.656 191.67 135.247 193.26 135.247 195.207V204.062C135.247 206.009 133.657 207.599 131.709 207.599C129.762 207.599 128.172 206.009 128.172 204.062V195.207Z" fill="#DE1C59"/>
<path d="M131.709 181.006C129.762 181.006 128.172 179.418 128.172 177.471C128.172 175.524 129.762 173.934 131.709 173.934C133.656 173.934 135.247 175.524 135.247 177.471V181.006L131.709 181.006ZM131.709 182.788C133.656 182.788 135.247 184.378 135.247 186.326C135.247 188.273 133.657 189.863 131.709 189.863H122.855C120.908 189.863 119.318 188.273 119.318 186.326C119.318 184.378 120.908 182.788 122.855 182.788H131.709Z" fill="#35C5F0"/>
<path d="M145.911 186.326C145.911 184.378 147.499 182.788 149.446 182.788C151.393 182.788 152.983 184.378 152.983 186.326C152.983 188.273 151.393 189.863 149.446 189.863H145.911V186.326ZM144.129 186.326C144.129 188.273 142.538 189.863 140.591 189.863C138.644 189.863 137.054 188.273 137.054 186.326V177.471C137.054 175.524 138.644 173.934 140.591 173.934C142.538 173.934 144.129 175.524 144.129 177.471V186.326Z" fill="#2EB57D"/>
<path d="M140.591 200.527C142.538 200.527 144.129 202.115 144.129 204.062C144.129 206.009 142.538 207.599 140.591 207.599C138.644 207.599 137.054 206.009 137.054 204.062V200.527H140.591ZM140.591 198.745C138.644 198.745 137.054 197.155 137.054 195.207C137.054 193.26 138.644 191.67 140.591 191.67H149.446C151.393 191.67 152.983 193.26 152.983 195.207C152.983 197.155 151.393 198.745 149.446 198.745H140.591Z" fill="#EBB02E"/>
</g>
<path d="M411.332 198.886L258.055 97.366" stroke="#FF5702" stroke-opacity="0.18" stroke-width="1.89898" stroke-dasharray="7.6 11.39"/>
<path d="M219.157 109.656C234.428 120.755 255.805 117.373 266.903 102.102C278.002 86.8314 274.62 65.4546 259.349 54.3559C244.078 43.2571 222.702 46.6392 211.603 61.91C200.504 77.1809 203.886 98.5576 219.157 109.656Z" fill="url(#paint4_radial_1011_2045)"/>
<path d="M269.405 66.3595L244.827 48.4963C238.04 43.5635 228.54 45.0667 223.607 51.8537L205.744 76.4317C200.811 83.2188 202.314 92.7195 209.101 97.6523L233.679 115.516C240.466 120.448 249.967 118.945 254.9 112.158L272.763 87.5801C277.696 80.7931 276.192 71.2923 269.405 66.3595Z" fill="#FF5702" fill-opacity="0.08" stroke="#FF5702" stroke-opacity="0.6"/>
<path d="M251.805 80.6309C249.452 79.6291 247.312 78.186 245.501 76.3795C242.979 73.8527 241.18 70.6966 240.291 67.2392C240.252 67.0856 240.163 66.9495 240.038 66.8522C239.913 66.755 239.759 66.7021 239.6 66.7021C239.442 66.7021 239.288 66.755 239.163 66.8522C239.038 66.9495 238.949 67.0856 238.91 67.2392C238.018 70.6961 236.219 73.8519 233.698 76.3795C231.887 78.1858 229.747 79.6288 227.393 80.6309C226.473 81.0276 225.526 81.3464 224.557 81.5914C224.403 81.6294 224.265 81.7181 224.167 81.8433C224.069 81.9685 224.016 82.123 224.016 82.2821C224.016 82.4412 224.069 82.5957 224.167 82.7209C224.265 82.8461 224.403 82.9347 224.557 82.9727C225.526 83.2164 226.47 83.5351 227.393 83.9318C229.747 84.9337 231.887 86.3768 233.698 88.1832C236.22 90.7103 238.02 93.8669 238.91 97.3249C238.947 97.4794 239.036 97.6168 239.161 97.7149C239.287 97.8131 239.441 97.8664 239.6 97.8664C239.759 97.8664 239.914 97.8131 240.039 97.7149C240.164 97.6168 240.253 97.4794 240.291 97.3249C240.534 96.3545 240.853 95.411 241.25 94.4874C242.252 92.1339 243.695 89.994 245.501 88.1832C248.029 85.6613 251.185 83.8621 254.643 82.9727C254.797 82.9337 254.933 82.8446 255.03 82.7195C255.127 82.5944 255.18 82.4405 255.18 82.2821C255.18 82.1236 255.127 81.9697 255.03 81.8446C254.933 81.7196 254.797 81.6305 254.643 81.5914C253.673 81.3474 252.724 81.0262 251.805 80.6309Z" fill="#3186FF"/>
<path d="M251.805 80.6309C249.452 79.6291 247.312 78.186 245.501 76.3795C242.979 73.8527 241.18 70.6966 240.291 67.2392C240.252 67.0856 240.163 66.9495 240.038 66.8522C239.913 66.755 239.759 66.7021 239.6 66.7021C239.442 66.7021 239.288 66.755 239.163 66.8522C239.038 66.9495 238.949 67.0856 238.91 67.2392C238.018 70.6961 236.219 73.8519 233.698 76.3795C231.887 78.1858 229.747 79.6288 227.393 80.6309C226.473 81.0276 225.526 81.3464 224.557 81.5914C224.403 81.6294 224.265 81.7181 224.167 81.8433C224.069 81.9685 224.016 82.123 224.016 82.2821C224.016 82.4412 224.069 82.5957 224.167 82.7209C224.265 82.8461 224.403 82.9347 224.557 82.9727C225.526 83.2164 226.47 83.5351 227.393 83.9318C229.747 84.9337 231.887 86.3768 233.698 88.1832C236.22 90.7103 238.02 93.8669 238.91 97.3249C238.947 97.4794 239.036 97.6168 239.161 97.7149C239.287 97.8131 239.441 97.8664 239.6 97.8664C239.759 97.8664 239.914 97.8131 240.039 97.7149C240.164 97.6168 240.253 97.4794 240.291 97.3249C240.534 96.3545 240.853 95.411 241.25 94.4874C242.252 92.1339 243.695 89.994 245.501 88.1832C248.029 85.6613 251.185 83.8621 254.643 82.9727C254.797 82.9337 254.933 82.8446 255.03 82.7195C255.127 82.5944 255.18 82.4405 255.18 82.2821C255.18 82.1236 255.127 81.9697 255.03 81.8446C254.933 81.7196 254.797 81.6305 254.643 81.5914C253.673 81.3474 252.724 81.0262 251.805 80.6309Z" fill="url(#paint5_linear_1011_2045)"/>
<path d="M251.805 80.6309C249.452 79.6291 247.312 78.186 245.501 76.3795C242.979 73.8527 241.18 70.6966 240.291 67.2392C240.252 67.0856 240.163 66.9495 240.038 66.8522C239.913 66.755 239.759 66.7021 239.6 66.7021C239.442 66.7021 239.288 66.755 239.163 66.8522C239.038 66.9495 238.949 67.0856 238.91 67.2392C238.018 70.6961 236.219 73.8519 233.698 76.3795C231.887 78.1858 229.747 79.6288 227.393 80.6309C226.473 81.0276 225.526 81.3464 224.557 81.5914C224.403 81.6294 224.265 81.7181 224.167 81.8433C224.069 81.9685 224.016 82.123 224.016 82.2821C224.016 82.4412 224.069 82.5957 224.167 82.7209C224.265 82.8461 224.403 82.9347 224.557 82.9727C225.526 83.2164 226.47 83.5351 227.393 83.9318C229.747 84.9337 231.887 86.3768 233.698 88.1832C236.22 90.7103 238.02 93.8669 238.91 97.3249C238.947 97.4794 239.036 97.6168 239.161 97.7149C239.287 97.8131 239.441 97.8664 239.6 97.8664C239.759 97.8664 239.914 97.8131 240.039 97.7149C240.164 97.6168 240.253 97.4794 240.291 97.3249C240.534 96.3545 240.853 95.411 241.25 94.4874C242.252 92.1339 243.695 89.994 245.501 88.1832C248.029 85.6613 251.185 83.8621 254.643 82.9727C254.797 82.9337 254.933 82.8446 255.03 82.7195C255.127 82.5944 255.18 82.4405 255.18 82.2821C255.18 82.1236 255.127 81.9697 255.03 81.8446C254.933 81.7196 254.797 81.6305 254.643 81.5914C253.673 81.3474 252.724 81.0262 251.805 80.6309Z" fill="url(#paint6_linear_1011_2045)"/>
<path d="M251.805 80.6309C249.452 79.6291 247.312 78.186 245.501 76.3795C242.979 73.8527 241.18 70.6966 240.291 67.2392C240.252 67.0856 240.163 66.9495 240.038 66.8522C239.913 66.755 239.759 66.7021 239.6 66.7021C239.442 66.7021 239.288 66.755 239.163 66.8522C239.038 66.9495 238.949 67.0856 238.91 67.2392C238.018 70.6961 236.219 73.8519 233.698 76.3795C231.887 78.1858 229.747 79.6288 227.393 80.6309C226.473 81.0276 225.526 81.3464 224.557 81.5914C224.403 81.6294 224.265 81.7181 224.167 81.8433C224.069 81.9685 224.016 82.123 224.016 82.2821C224.016 82.4412 224.069 82.5957 224.167 82.7209C224.265 82.8461 224.403 82.9347 224.557 82.9727C225.526 83.2164 226.47 83.5351 227.393 83.9318C229.747 84.9337 231.887 86.3768 233.698 88.1832C236.22 90.7103 238.02 93.8669 238.91 97.3249C238.947 97.4794 239.036 97.6168 239.161 97.7149C239.287 97.8131 239.441 97.8664 239.6 97.8664C239.759 97.8664 239.914 97.8131 240.039 97.7149C240.164 97.6168 240.253 97.4794 240.291 97.3249C240.534 96.3545 240.853 95.411 241.25 94.4874C242.252 92.1339 243.695 89.994 245.501 88.1832C248.029 85.6613 251.185 83.8621 254.643 82.9727C254.797 82.9337 254.933 82.8446 255.03 82.7195C255.127 82.5944 255.18 82.4405 255.18 82.2821C255.18 82.1236 255.127 81.9697 255.03 81.8446C254.933 81.7196 254.797 81.6305 254.643 81.5914C253.673 81.3474 252.724 81.0262 251.805 80.6309Z" fill="url(#paint7_linear_1011_2045)"/>
<path d="M426.938 174.597L239.877 282.597" stroke="#FF5702" stroke-opacity="0.18" stroke-width="1.89898" stroke-dasharray="7.6 11.39"/>
<path d="M230.384 327.488C246.732 318.049 252.334 297.144 242.895 280.795C233.456 264.446 212.551 258.845 196.202 268.284C179.853 277.723 174.251 298.628 183.69 314.977C193.13 331.326 214.035 336.927 230.384 327.488Z" fill="url(#paint8_radial_1011_2045)"/>
<path d="M211.257 263.977L184.944 279.169C177.678 283.364 175.188 292.655 179.384 299.921L194.575 326.234C198.771 333.5 208.062 335.99 215.328 331.795L241.641 316.603C248.907 312.408 251.397 303.117 247.202 295.851L232.01 269.537C227.815 262.271 218.523 259.782 211.257 263.977Z" fill="#FF5702" fill-opacity="0.08" stroke="#FF5702" stroke-opacity="0.6"/>
<path d="M210.952 299.137L210.952 293.149C210.952 292.38 211.377 291.674 212.057 291.313L217.105 288.636C217.303 288.53 217.514 288.451 217.732 288.398C221.654 287.447 225.251 290.86 224.507 294.827L224.118 296.9" stroke="#D4D4D4" stroke-width="2"/>
<path d="M211.133 296.374L216.338 293.369C217.004 292.984 217.828 292.999 218.48 293.407L223.373 296.471C223.542 296.576 223.698 296.7 223.839 296.84C226.773 299.757 225.572 304.745 221.633 306.008L219.977 306.539" stroke="#D4D4D4" stroke-width="2"/>
<path d="M213.905 295.186L219.11 298.191C219.776 298.576 220.175 299.297 220.148 300.065L219.943 305.781C219.935 306.015 219.896 306.248 219.828 306.473C218.653 310.366 213.869 311.776 210.77 309.141L209.416 307.991" stroke="#D4D4D4" stroke-width="2"/>
<path d="M216.296 296.762L216.296 303.029C216.296 303.8 215.869 304.508 215.187 304.868L210.084 307.558C209.887 307.661 209.679 307.74 209.464 307.793C205.545 308.751 201.93 305.373 202.622 301.398L203.015 299.137" stroke="#D4D4D4" stroke-width="2"/>
<path d="M216.094 299.77L210.616 302.79C209.936 303.165 209.104 303.129 208.458 302.698L203.486 299.373C203.364 299.292 203.249 299.199 203.143 299.098C200.402 296.471 201.309 291.887 204.844 290.502L207.04 289.641" stroke="#D4D4D4" stroke-width="2"/>
<path d="M213.289 300.958L207.796 297.693C207.143 297.305 206.754 296.592 206.781 295.833L206.982 290.204C206.993 289.9 207.054 289.601 207.162 289.318C208.612 285.513 213.465 284.404 216.424 287.201L217.469 288.189" stroke="#D4D4D4" stroke-width="2"/>
<path d="M377.1 304.95C459.114 304.95 525.6 253.911 525.6 190.95C525.6 127.99 459.114 76.9502 377.1 76.9502C295.085 76.9502 228.6 127.99 228.6 190.95C228.6 253.911 295.085 304.95 377.1 304.95Z" fill="url(#paint9_radial_1011_2045)"/>
<path d="M380.8 240.272C408.069 240.272 430.174 218.166 430.174 190.898C430.174 163.63 408.069 141.524 380.8 141.524C353.532 141.524 331.427 163.63 331.427 190.898C331.427 218.166 353.532 240.272 380.8 240.272Z" fill="black" stroke="#1E1A4D" stroke-opacity="0.6" stroke-width="2.84847"/>
<path d="M383.645 167.458C387.591 167.968 391.195 169.429 394.247 171.584C391.973 172.467 390.255 174.541 389.941 177.118C387.738 175.628 385.147 174.643 382.317 174.351C373.149 173.402 364.948 180.066 364 189.233C363.052 198.401 369.715 206.602 378.883 207.55C388.05 208.499 396.251 201.835 397.2 192.668C397.489 189.875 397.071 187.173 396.092 184.737C398.68 184.974 401.067 183.731 402.409 181.696C403.927 185.265 404.59 189.257 404.163 193.388L404.092 193.995C402.452 206.694 390.972 215.838 378.162 214.513L377.555 214.442C365.058 212.829 356.003 201.685 356.982 189.122L357.037 188.513C358.383 175.5 370.024 166.042 383.037 167.388L383.645 167.458Z" fill="#FF5702"/>
<path d="M396.117 173.406L397.611 176.79L401.152 177.859L397.768 179.353L396.699 182.894L395.206 179.51L391.664 178.441L395.048 176.947L396.117 173.406Z" fill="white"/>
<path d="M399.729 172.424L400.303 173.723L401.662 174.134L400.363 174.707L399.952 176.067L399.379 174.768L398.019 174.357L399.318 173.784L399.729 172.424Z" fill="white"/>
<path d="M380.6 138.95L380.6 87.9502" stroke="#FF5702" stroke-opacity="0.18" stroke-width="1.89898" stroke-dasharray="7.6 11.39"/>
<path d="M415.006 57.4062C415.006 38.5281 399.702 23.2244 380.824 23.2244C361.946 23.2244 346.642 38.5281 346.642 57.4062C346.642 76.2842 361.946 91.5879 380.824 91.5879C399.702 91.5879 415.006 76.2842 415.006 57.4062Z" fill="url(#paint10_radial_1011_2045)"/>
<path d="M350.44 42.2144L350.44 72.5982C350.44 80.9884 357.242 87.79 365.632 87.79L396.016 87.79C404.406 87.79 411.208 80.9884 411.208 72.5982L411.208 42.2144C411.208 33.8242 404.406 27.0225 396.016 27.0225L365.632 27.0225C357.242 27.0225 350.44 33.8242 350.44 42.2144Z" fill="#FF5702" fill-opacity="0.08" stroke="#FF5702" stroke-opacity="0.6" stroke-width="1.89898"/>
<mask id="mask0_1011_2045" style="mask-type:luminance" maskUnits="userSpaceOnUse" x="363" y="40" width="35" height="35">
<path d="M363.6 40.4736H397.6V74.4736H363.6V40.4736Z" fill="white"/>
</mask>
<g mask="url(#mask0_1011_2045)">
<path d="M384.85 57.4809C384.85 58.7068 384.629 59.9226 384.197 61.0697C383.049 61.5019 381.833 61.7234 380.607 61.7236H380.592C379.367 61.7236 378.151 61.5024 377.004 61.0706C376.571 59.9233 376.349 58.7071 376.35 57.4809V57.4664C376.35 56.2404 376.57 55.0244 377.002 53.8776C378.149 53.4446 379.366 53.2227 380.592 53.2236H380.607C381.833 53.2229 383.049 53.4444 384.197 53.8776C384.63 55.0244 384.851 56.2404 384.85 57.4654V57.4809ZM397.363 54.6397H387.441L394.456 47.6231C393.906 46.8496 393.292 46.1235 392.62 45.4521V45.4512C391.949 44.7807 391.222 44.1671 390.449 43.6168L383.433 50.6334V40.7101C382.5 40.5528 381.555 40.4737 380.609 40.4736H380.591C379.628 40.4736 378.685 40.5555 377.767 40.7101V50.6334L370.75 43.6168C369.976 44.1667 369.25 44.781 368.58 45.453L368.576 45.4549C367.906 46.1257 367.292 46.8509 366.742 47.6231L373.759 54.6397H363.837C363.837 54.6397 363.6 56.5041 363.6 57.4673V57.4791C363.6 58.4431 363.681 59.3872 363.837 60.3067H373.759L366.743 67.3233C367.846 68.8728 369.2 70.2271 370.75 71.3305L377.767 64.3138V74.2372C378.699 74.3936 379.642 74.4727 380.588 74.4736H380.611C381.557 74.4727 382.5 74.3936 383.433 74.2372V64.3138L390.45 71.3305C391.223 70.7802 391.949 70.1663 392.62 69.4951L392.622 69.4933C393.293 68.8221 393.906 68.0962 394.456 67.3233L387.439 60.3067H397.363C397.518 59.389 397.599 58.4477 397.6 57.4855V57.4609C397.599 56.5156 397.52 55.5719 397.363 54.6397Z" fill="#FF4A00"/>
</g>
<path d="M381.048 243.224L381.048 294.224" stroke="#FF5702" stroke-opacity="0.18" stroke-width="1.89898" stroke-dasharray="7.6 11.39"/>
<path d="M346.642 324.768C346.642 343.646 361.946 358.95 380.824 358.95C399.702 358.95 415.006 343.646 415.006 324.768C415.006 305.89 399.702 290.587 380.824 290.587C361.946 290.587 346.642 305.89 346.642 324.768Z" fill="url(#paint11_radial_1011_2045)"/>
<path d="M411.208 339.96L411.208 309.576C411.208 301.186 404.406 294.385 396.016 294.385L365.632 294.385C357.242 294.385 350.44 301.186 350.44 309.576L350.44 339.96C350.44 348.35 357.242 355.152 365.632 355.152L396.016 355.152C404.406 355.152 411.208 348.35 411.208 339.96Z" fill="#FF5702" fill-opacity="0.08" stroke="#FF5702" stroke-opacity="0.6" stroke-width="1.89898"/>
<g clip-path="url(#clip4_1011_2045)">
<path d="M395.829 328.042C395.829 323.712 392.682 320.127 388.558 319.495V315.404C389.713 314.912 390.419 313.823 390.419 312.555C390.419 310.822 389.039 309.374 387.317 309.374C385.596 309.374 384.236 310.822 384.236 312.555C384.236 313.823 384.943 314.912 386.096 315.404V319.468C385.111 319.602 384.157 319.908 383.279 320.372C381.457 318.984 375.527 314.681 372.136 312.084C372.221 311.786 372.265 311.478 372.268 311.168C372.27 310.25 371.907 309.369 371.259 308.719C370.611 308.069 369.732 307.703 368.814 307.701C367.898 307.705 367.021 308.072 366.375 308.722C365.73 309.372 365.368 310.252 365.37 311.168C365.367 312.085 365.727 312.966 366.373 313.618C367.019 314.269 367.897 314.637 368.814 314.641C369.46 314.641 370.061 314.449 370.582 314.137L381.349 321.755L381.346 321.753C380.494 322.562 379.816 323.536 379.353 324.616C378.89 325.696 378.652 326.86 378.655 328.035C378.655 329.98 379.295 331.773 380.37 333.214L377.105 336.52C376.809 336.411 376.496 336.355 376.181 336.355C375.468 336.355 374.801 336.634 374.301 337.138C373.8 337.642 373.523 338.32 373.523 339.038C373.523 339.756 373.801 340.426 374.301 340.931C374.803 341.435 375.476 341.701 376.182 341.701C376.895 341.701 377.562 341.442 378.069 340.931C378.414 340.584 378.658 340.149 378.773 339.674C378.888 339.199 378.871 338.701 378.723 338.235L382.022 334.901C383.518 336.062 385.36 336.691 387.254 336.688C391.995 336.688 395.829 332.816 395.829 328.042ZM387.251 332.616C384.738 332.616 382.699 330.565 382.699 328.035C382.699 325.504 384.736 323.453 387.251 323.453C389.764 323.453 391.803 325.504 391.803 328.035C391.803 330.565 389.764 332.616 387.251 332.616Z" fill="#00ACFC"/>
</g>
</g>
<mask id="path-55-inside-1_1011_2045" fill="white">
<path d="M1 380.796H760.6V465.796H1V380.796Z"/>
</mask>
<path d="M1 380.796V381.796H760.6V380.796V379.796H1V380.796Z" fill="white" fill-opacity="0.05" mask="url(#path-55-inside-1_1011_2045)"/>
<path d="M26.3672 411.796V400.522H28.3359L34.1406 408.538L32.4922 407.702H33.6641V400.522H35.9219V411.796H33.9688L28.1484 403.749L29.8047 404.585H28.625V411.796H26.3672ZM40.7812 411.929C40.2396 411.929 39.7552 411.825 39.3281 411.616C38.9062 411.403 38.5755 411.103 38.3359 410.718C38.0964 410.327 37.9766 409.871 37.9766 409.351V409.335C37.9766 408.819 38.1042 408.377 38.3594 408.007C38.6198 407.637 38.9974 407.348 39.4922 407.14C39.9922 406.926 40.599 406.799 41.3125 406.757L44.5156 406.562V407.952L41.6562 408.14C41.1667 408.166 40.8021 408.27 40.5625 408.452C40.3229 408.634 40.2031 408.882 40.2031 409.194V409.21C40.2031 409.538 40.3281 409.796 40.5781 409.983C40.8281 410.171 41.151 410.265 41.5469 410.265C41.901 410.265 42.2161 410.194 42.4922 410.054C42.7682 409.913 42.987 409.723 43.1484 409.483C43.3099 409.239 43.3906 408.965 43.3906 408.663V405.921C43.3906 405.546 43.2656 405.259 43.0156 405.062C42.7708 404.858 42.4141 404.757 41.9453 404.757C41.5339 404.757 41.1979 404.827 40.9375 404.968C40.6823 405.103 40.5104 405.299 40.4219 405.554L40.4062 405.585H38.2969L38.3047 405.515C38.3672 405.009 38.5573 404.569 38.875 404.194C39.1979 403.819 39.6302 403.528 40.1719 403.319C40.7188 403.111 41.3516 403.007 42.0703 403.007C42.8307 403.007 43.4766 403.124 44.0078 403.358C44.5391 403.588 44.9427 403.921 45.2188 404.358C45.5 404.791 45.6406 405.312 45.6406 405.921V411.796H43.3906V410.655H43.25C43.1042 410.921 42.9089 411.15 42.6641 411.343C42.4245 411.53 42.1432 411.676 41.8203 411.78C41.5026 411.879 41.1562 411.929 40.7812 411.929ZM51.4453 411.827C50.4036 411.827 49.6536 411.645 49.1953 411.28C48.737 410.91 48.5078 410.309 48.5078 409.476V404.913H47.1797V403.194H48.5078V401.14H50.8125V403.194H52.5859V404.913H50.8125V408.952C50.8125 409.338 50.8984 409.621 51.0703 409.804C51.2474 409.981 51.5286 410.069 51.9141 410.069C52.0599 410.069 52.1797 410.067 52.2734 410.062C52.3724 410.051 52.4766 410.041 52.5859 410.03V411.726C52.4453 411.752 52.276 411.775 52.0781 411.796C51.8802 411.817 51.6693 411.827 51.4453 411.827ZM54.5 411.796V403.194H56.7812V411.796H54.5ZM55.6484 401.874C55.2995 401.874 54.9974 401.752 54.7422 401.507C54.487 401.257 54.3594 400.957 54.3594 400.608C54.3594 400.254 54.487 399.955 54.7422 399.71C54.9974 399.46 55.2995 399.335 55.6484 399.335C56.0026 399.335 56.3047 399.46 56.5547 399.71C56.8047 399.955 56.9297 400.254 56.9297 400.608C56.9297 400.957 56.8047 401.257 56.5547 401.507C56.3047 401.752 56.0026 401.874 55.6484 401.874ZM61.3281 411.796L58.3359 403.194H60.7812L62.5625 409.663H62.7031L64.4688 403.194H66.8672L63.8906 411.796H61.3281ZM71.8438 411.976C70.974 411.976 70.224 411.796 69.5938 411.437C68.9688 411.072 68.487 410.556 68.1484 409.89C67.8099 409.223 67.6406 408.429 67.6406 407.507V407.499C67.6406 406.588 67.8073 405.796 68.1406 405.124C68.4792 404.452 68.9557 403.931 69.5703 403.562C70.1901 403.192 70.9167 403.007 71.75 403.007C72.5885 403.007 73.3125 403.187 73.9219 403.546C74.5312 403.905 75 404.408 75.3281 405.054C75.6562 405.7 75.8203 406.457 75.8203 407.327V408.038H68.7812V406.608H74.7266L73.6562 407.96V407.046C73.6562 406.53 73.5755 406.101 73.4141 405.757C73.2578 405.413 73.0391 405.155 72.7578 404.983C72.4818 404.806 72.1589 404.718 71.7891 404.718C71.4245 404.718 71.099 404.809 70.8125 404.991C70.5312 405.168 70.3073 405.431 70.1406 405.78C69.9792 406.124 69.8984 406.546 69.8984 407.046V407.968C69.8984 408.452 69.9792 408.866 70.1406 409.21C70.3021 409.554 70.5312 409.817 70.8281 409.999C71.125 410.181 71.4792 410.272 71.8906 410.272C72.224 410.272 72.5078 410.223 72.7422 410.124C72.9766 410.025 73.1641 409.91 73.3047 409.78C73.4505 409.645 73.5495 409.522 73.6016 409.413L73.625 409.366H75.75L75.7344 409.444C75.6667 409.715 75.5443 409.999 75.3672 410.296C75.1901 410.588 74.9453 410.861 74.6328 411.116C74.3255 411.371 73.9401 411.58 73.4766 411.741C73.0182 411.897 72.474 411.976 71.8438 411.976ZM82.0391 411.796V400.522H84.3984V411.796H82.0391ZM86.9062 411.796V403.194H89.1875V404.522H89.3281C89.526 404.054 89.8333 403.684 90.25 403.413C90.6667 403.142 91.1823 403.007 91.7969 403.007C92.7552 403.007 93.4844 403.288 93.9844 403.851C94.4896 404.408 94.7422 405.202 94.7422 406.233V411.796H92.4609V406.749C92.4609 406.14 92.3333 405.679 92.0781 405.366C91.8229 405.054 91.4245 404.897 90.8828 404.897C90.5339 404.897 90.2318 404.978 89.9766 405.14C89.7266 405.296 89.5312 405.517 89.3906 405.804C89.2552 406.09 89.1875 406.429 89.1875 406.819V411.796H86.9062ZM100.523 411.827C99.4818 411.827 98.7318 411.645 98.2734 411.28C97.8151 410.91 97.5859 410.309 97.5859 409.476V404.913H96.2578V403.194H97.5859V401.14H99.8906V403.194H101.664V404.913H99.8906V408.952C99.8906 409.338 99.9766 409.621 100.148 409.804C100.326 409.981 100.607 410.069 100.992 410.069C101.138 410.069 101.258 410.067 101.352 410.062C101.451 410.051 101.555 410.041 101.664 410.03V411.726C101.523 411.752 101.354 411.775 101.156 411.796C100.958 411.817 100.747 411.827 100.523 411.827ZM107.281 411.976C106.411 411.976 105.661 411.796 105.031 411.437C104.406 411.072 103.924 410.556 103.586 409.89C103.247 409.223 103.078 408.429 103.078 407.507V407.499C103.078 406.588 103.245 405.796 103.578 405.124C103.917 404.452 104.393 403.931 105.008 403.562C105.628 403.192 106.354 403.007 107.188 403.007C108.026 403.007 108.75 403.187 109.359 403.546C109.969 403.905 110.438 404.408 110.766 405.054C111.094 405.7 111.258 406.457 111.258 407.327V408.038H104.219V406.608H110.164L109.094 407.96V407.046C109.094 406.53 109.013 406.101 108.852 405.757C108.695 405.413 108.477 405.155 108.195 404.983C107.919 404.806 107.596 404.718 107.227 404.718C106.862 404.718 106.536 404.809 106.25 404.991C105.969 405.168 105.745 405.431 105.578 405.78C105.417 406.124 105.336 406.546 105.336 407.046V407.968C105.336 408.452 105.417 408.866 105.578 409.21C105.74 409.554 105.969 409.817 106.266 409.999C106.562 410.181 106.917 410.272 107.328 410.272C107.661 410.272 107.945 410.223 108.18 410.124C108.414 410.025 108.602 409.91 108.742 409.78C108.888 409.645 108.987 409.522 109.039 409.413L109.062 409.366H111.188L111.172 409.444C111.104 409.715 110.982 409.999 110.805 410.296C110.628 410.588 110.383 410.861 110.07 411.116C109.763 411.371 109.378 411.58 108.914 411.741C108.456 411.897 107.911 411.976 107.281 411.976ZM116.922 414.819C116.125 414.819 115.443 414.715 114.875 414.507C114.312 414.304 113.87 414.015 113.547 413.64C113.224 413.27 113.031 412.843 112.969 412.358V412.319H115.227L115.234 412.351C115.297 412.601 115.474 412.804 115.766 412.96C116.062 413.116 116.464 413.194 116.969 413.194C117.578 413.194 118.052 413.056 118.391 412.78C118.729 412.509 118.898 412.124 118.898 411.624V410.022H118.758C118.602 410.325 118.396 410.58 118.141 410.788C117.891 410.996 117.599 411.155 117.266 411.265C116.938 411.369 116.576 411.421 116.18 411.421C115.461 411.421 114.839 411.249 114.312 410.905C113.792 410.556 113.388 410.072 113.102 409.452C112.82 408.832 112.68 408.116 112.68 407.304V407.288C112.68 406.444 112.82 405.705 113.102 405.069C113.388 404.434 113.794 403.939 114.32 403.585C114.852 403.231 115.484 403.054 116.219 403.054C116.615 403.054 116.977 403.116 117.305 403.241C117.638 403.366 117.93 403.543 118.18 403.772C118.43 404.002 118.63 404.278 118.781 404.601H118.891V403.194H121.172V411.53C121.172 412.202 120.997 412.783 120.648 413.272C120.305 413.767 119.815 414.147 119.18 414.413C118.544 414.684 117.792 414.819 116.922 414.819ZM116.953 409.671C117.365 409.671 117.716 409.572 118.008 409.374C118.299 409.171 118.523 408.892 118.68 408.538C118.841 408.184 118.922 407.77 118.922 407.296V407.28C118.922 406.812 118.841 406.397 118.68 406.038C118.523 405.679 118.299 405.4 118.008 405.202C117.716 405.004 117.365 404.905 116.953 404.905C116.542 404.905 116.193 405.004 115.906 405.202C115.62 405.4 115.398 405.679 115.242 406.038C115.091 406.392 115.016 406.806 115.016 407.28V407.296C115.016 407.765 115.091 408.179 115.242 408.538C115.398 408.892 115.62 409.171 115.906 409.374C116.193 409.572 116.542 409.671 116.953 409.671ZM123.453 411.796V403.194H125.734V404.53H125.875C126.016 404.062 126.273 403.7 126.648 403.444C127.023 403.184 127.49 403.054 128.047 403.054C128.203 403.054 128.354 403.064 128.5 403.085C128.651 403.106 128.784 403.132 128.898 403.163V405.155C128.727 405.114 128.552 405.082 128.375 405.062C128.203 405.035 128.029 405.022 127.852 405.022C127.419 405.022 127.044 405.103 126.727 405.265C126.409 405.421 126.164 405.645 125.992 405.937C125.82 406.228 125.734 406.577 125.734 406.983V411.796H123.453ZM132.609 411.929C132.068 411.929 131.583 411.825 131.156 411.616C130.734 411.403 130.404 411.103 130.164 410.718C129.924 410.327 129.805 409.871 129.805 409.351V409.335C129.805 408.819 129.932 408.377 130.188 408.007C130.448 407.637 130.826 407.348 131.32 407.14C131.82 406.926 132.427 406.799 133.141 406.757L136.344 406.562V407.952L133.484 408.14C132.995 408.166 132.63 408.27 132.391 408.452C132.151 408.634 132.031 408.882 132.031 409.194V409.21C132.031 409.538 132.156 409.796 132.406 409.983C132.656 410.171 132.979 410.265 133.375 410.265C133.729 410.265 134.044 410.194 134.32 410.054C134.596 409.913 134.815 409.723 134.977 409.483C135.138 409.239 135.219 408.965 135.219 408.663V405.921C135.219 405.546 135.094 405.259 134.844 405.062C134.599 404.858 134.242 404.757 133.773 404.757C133.362 404.757 133.026 404.827 132.766 404.968C132.51 405.103 132.339 405.299 132.25 405.554L132.234 405.585H130.125L130.133 405.515C130.195 405.009 130.385 404.569 130.703 404.194C131.026 403.819 131.458 403.528 132 403.319C132.547 403.111 133.18 403.007 133.898 403.007C134.659 403.007 135.305 403.124 135.836 403.358C136.367 403.588 136.771 403.921 137.047 404.358C137.328 404.791 137.469 405.312 137.469 405.921V411.796H135.219V410.655H135.078C134.932 410.921 134.737 411.15 134.492 411.343C134.253 411.53 133.971 411.676 133.648 411.78C133.331 411.879 132.984 411.929 132.609 411.929ZM143.273 411.827C142.232 411.827 141.482 411.645 141.023 411.28C140.565 410.91 140.336 410.309 140.336 409.476V404.913H139.008V403.194H140.336V401.14H142.641V403.194H144.414V404.913H142.641V408.952C142.641 409.338 142.727 409.621 142.898 409.804C143.076 409.981 143.357 410.069 143.742 410.069C143.888 410.069 144.008 410.067 144.102 410.062C144.201 410.051 144.305 410.041 144.414 410.03V411.726C144.273 411.752 144.104 411.775 143.906 411.796C143.708 411.817 143.497 411.827 143.273 411.827ZM146.328 411.796V403.194H148.609V411.796H146.328ZM147.477 401.874C147.128 401.874 146.826 401.752 146.57 401.507C146.315 401.257 146.188 400.957 146.188 400.608C146.188 400.254 146.315 399.955 146.57 399.71C146.826 399.46 147.128 399.335 147.477 399.335C147.831 399.335 148.133 399.46 148.383 399.71C148.633 399.955 148.758 400.254 148.758 400.608C148.758 400.957 148.633 401.257 148.383 401.507C148.133 401.752 147.831 401.874 147.477 401.874ZM154.727 411.976C153.846 411.976 153.089 411.799 152.453 411.444C151.818 411.085 151.331 410.572 150.992 409.905C150.654 409.233 150.484 408.431 150.484 407.499V407.483C150.484 406.556 150.656 405.759 151 405.093C151.344 404.426 151.831 403.913 152.461 403.554C153.096 403.189 153.852 403.007 154.727 403.007C155.602 403.007 156.354 403.187 156.984 403.546C157.62 403.905 158.109 404.421 158.453 405.093C158.797 405.759 158.969 406.556 158.969 407.483V407.499C158.969 408.431 158.799 409.233 158.461 409.905C158.122 410.572 157.635 411.085 157 411.444C156.37 411.799 155.612 411.976 154.727 411.976ZM154.727 410.187C155.133 410.187 155.477 410.08 155.758 409.866C156.039 409.653 156.255 409.345 156.406 408.944C156.557 408.543 156.633 408.062 156.633 407.499V407.483C156.633 406.921 156.557 406.442 156.406 406.046C156.255 405.645 156.036 405.338 155.75 405.124C155.469 404.905 155.128 404.796 154.727 404.796C154.326 404.796 153.982 404.905 153.695 405.124C153.414 405.338 153.198 405.645 153.047 406.046C152.896 406.442 152.82 406.921 152.82 407.483V407.499C152.82 408.067 152.893 408.551 153.039 408.952C153.19 409.353 153.406 409.66 153.688 409.874C153.974 410.082 154.32 410.187 154.727 410.187ZM160.828 411.796V403.194H163.109V404.522H163.25C163.448 404.054 163.755 403.684 164.172 403.413C164.589 403.142 165.104 403.007 165.719 403.007C166.677 403.007 167.406 403.288 167.906 403.851C168.411 404.408 168.664 405.202 168.664 406.233V411.796H166.383V406.749C166.383 406.14 166.255 405.679 166 405.366C165.745 405.054 165.346 404.897 164.805 404.897C164.456 404.897 164.154 404.978 163.898 405.14C163.648 405.296 163.453 405.517 163.312 405.804C163.177 406.09 163.109 406.429 163.109 406.819V411.796H160.828ZM174.297 411.976C173.516 411.976 172.849 411.869 172.297 411.655C171.75 411.437 171.32 411.137 171.008 410.757C170.701 410.377 170.521 409.942 170.469 409.452L170.461 409.421H172.703L172.719 409.452C172.812 409.718 172.99 409.937 173.25 410.108C173.516 410.28 173.872 410.366 174.32 410.366C174.612 410.366 174.867 410.327 175.086 410.249C175.305 410.166 175.477 410.054 175.602 409.913C175.727 409.772 175.789 409.608 175.789 409.421V409.405C175.789 409.176 175.695 408.986 175.508 408.835C175.32 408.684 175.008 408.559 174.57 408.46L173.133 408.155C172.586 408.041 172.13 407.874 171.766 407.655C171.401 407.431 171.128 407.158 170.945 406.835C170.768 406.512 170.68 406.137 170.68 405.71V405.702C170.68 405.16 170.828 404.689 171.125 404.288C171.427 403.882 171.846 403.567 172.383 403.343C172.924 403.119 173.552 403.007 174.266 403.007C175.016 403.007 175.654 403.121 176.18 403.351C176.706 403.575 177.109 403.877 177.391 404.257C177.677 404.632 177.836 405.051 177.867 405.515V405.546H175.75L175.742 405.507C175.68 405.272 175.523 405.067 175.273 404.89C175.023 404.707 174.685 404.616 174.258 404.616C173.997 404.616 173.766 404.655 173.562 404.733C173.359 404.812 173.198 404.921 173.078 405.062C172.964 405.202 172.906 405.369 172.906 405.562V405.569C172.906 405.72 172.945 405.853 173.023 405.968C173.102 406.082 173.229 406.181 173.406 406.265C173.583 406.348 173.82 406.424 174.117 406.491L175.547 406.796C176.406 406.983 177.042 407.265 177.453 407.64C177.865 408.015 178.07 408.52 178.07 409.155V409.163C178.07 409.731 177.909 410.226 177.586 410.647C177.263 411.069 176.818 411.397 176.25 411.632C175.682 411.861 175.031 411.976 174.297 411.976Z" fill="#EEF2FF"/>
<path d="M29.4912 437.028C28.7712 437.028 28.1423 436.912 27.6045 436.68C27.0713 436.443 26.6475 436.119 26.333 435.709C26.0231 435.294 25.8431 434.82 25.793 434.287L25.7861 434.212H27.0166L27.0234 434.287C27.0553 434.615 27.1807 434.9 27.3994 435.142C27.6227 435.379 27.9189 435.563 28.2881 435.695C28.6618 435.827 29.0856 435.894 29.5596 435.894C30.0062 435.894 30.4027 435.823 30.749 435.682C31.0999 435.536 31.3757 435.335 31.5762 435.08C31.7767 434.825 31.877 434.531 31.877 434.198V434.191C31.877 433.781 31.7266 433.437 31.4258 433.159C31.125 432.877 30.6351 432.66 29.9561 432.51L28.8623 432.271C27.8734 432.052 27.1533 431.715 26.7021 431.259C26.2555 430.799 26.0322 430.211 26.0322 429.495V429.488C26.0368 428.941 26.1849 428.458 26.4766 428.039C26.7728 427.62 27.1807 427.292 27.7002 427.055C28.2243 426.818 28.8258 426.699 29.5049 426.699C30.1611 426.699 30.7422 426.818 31.248 427.055C31.7539 427.287 32.1549 427.602 32.4512 427.998C32.752 428.395 32.9183 428.839 32.9502 429.331L32.957 429.427H31.7266L31.7129 429.338C31.6673 429.046 31.5488 428.789 31.3574 428.565C31.166 428.338 30.9108 428.158 30.5918 428.025C30.2728 427.893 29.8991 427.829 29.4707 427.834C29.0605 427.834 28.6914 427.898 28.3633 428.025C28.0352 428.153 27.7731 428.338 27.5771 428.579C27.3857 428.816 27.29 429.108 27.29 429.454V429.461C27.29 429.853 27.4359 430.183 27.7275 430.452C28.0192 430.721 28.5 430.928 29.1699 431.074L30.2637 431.32C30.9518 431.471 31.5055 431.667 31.9248 431.908C32.3441 432.15 32.6494 432.446 32.8408 432.797C33.0368 433.143 33.1348 433.553 33.1348 434.027V434.034C33.1348 434.649 32.9844 435.18 32.6836 435.627C32.3828 436.074 31.959 436.42 31.4121 436.666C30.8652 436.908 30.2249 437.028 29.4912 437.028ZM35.6641 439.38C35.5866 439.38 35.5 439.375 35.4043 439.366C35.3086 439.362 35.2197 439.353 35.1377 439.339V438.361C35.2106 438.375 35.2904 438.384 35.377 438.389C35.4635 438.393 35.5479 438.396 35.6299 438.396C35.9671 438.396 36.2428 438.309 36.457 438.136C36.6758 437.963 36.8512 437.664 36.9834 437.24L37.1201 436.803L34.3926 429.427H35.6641L37.9336 436.235L37.4619 435.49H38.0225L37.5508 436.235L39.8135 429.427H41.0645L38.1865 437.247C37.986 437.799 37.7741 438.229 37.5508 438.539C37.3275 438.849 37.0654 439.065 36.7646 439.188C36.4684 439.316 36.1016 439.38 35.6641 439.38ZM42.6367 436.796V429.427H43.8262V430.534H43.9355C44.1224 430.142 44.3913 429.839 44.7422 429.625C45.0931 429.406 45.5397 429.297 46.082 429.297C46.9115 429.297 47.5472 429.534 47.9893 430.008C48.4359 430.477 48.6592 431.149 48.6592 432.024V436.796H47.4697V432.312C47.4697 431.646 47.3285 431.154 47.0459 430.835C46.7679 430.511 46.335 430.35 45.7471 430.35C45.3551 430.35 45.0156 430.434 44.7285 430.603C44.4414 430.771 44.2181 431.01 44.0586 431.32C43.9036 431.63 43.8262 432.002 43.8262 432.435V436.796H42.6367ZM53.8271 436.926C53.139 436.926 52.542 436.769 52.0361 436.454C51.5303 436.14 51.1383 435.695 50.8604 435.121C50.5824 434.547 50.4434 433.87 50.4434 433.091V433.077C50.4434 432.312 50.5801 431.646 50.8535 431.081C51.1315 430.516 51.5234 430.078 52.0293 429.769C52.5352 429.454 53.1322 429.297 53.8203 429.297C54.4173 429.297 54.9323 429.402 55.3652 429.611C55.7982 429.821 56.1445 430.104 56.4043 430.459C56.6641 430.81 56.8304 431.204 56.9033 431.642L56.9102 431.683H55.7275L55.7207 431.662C55.6296 431.298 55.4222 430.988 55.0986 430.732C54.7751 430.477 54.349 430.35 53.8203 430.35C53.3783 430.35 52.9954 430.461 52.6719 430.685C52.3483 430.908 52.0977 431.225 51.9199 431.635C51.7467 432.04 51.6602 432.521 51.6602 433.077V433.091C51.6602 433.656 51.749 434.148 51.9268 434.567C52.1045 434.982 52.3551 435.303 52.6787 435.531C53.0023 435.759 53.3828 435.873 53.8203 435.873C54.3171 435.873 54.7227 435.766 55.0371 435.552C55.3516 435.338 55.5771 435.025 55.7139 434.615L55.7275 434.574L56.9033 434.567L56.8896 434.643C56.7894 435.085 56.6117 435.479 56.3564 435.825C56.1012 436.167 55.764 436.436 55.3447 436.632C54.9255 436.828 54.4196 436.926 53.8271 436.926ZM64.0059 436.796L61.9414 429.427H63.1309L64.5801 435.319H64.6895L66.3369 429.427H67.4648L69.1123 435.319H69.2217L70.6709 429.427H71.8535L69.7891 436.796H68.5928L66.9453 431.095H66.8359L65.1953 436.796H64.0059ZM73.4531 436.796V429.427H74.6426V436.796H73.4531ZM74.0547 428.005C73.8314 428.005 73.6377 427.925 73.4736 427.766C73.3141 427.602 73.2344 427.408 73.2344 427.185C73.2344 426.957 73.3141 426.763 73.4736 426.604C73.6377 426.444 73.8314 426.364 74.0547 426.364C74.2826 426.364 74.4762 426.444 74.6357 426.604C74.7952 426.763 74.875 426.957 74.875 427.185C74.875 427.408 74.7952 427.602 74.6357 427.766C74.4762 427.925 74.2826 428.005 74.0547 428.005ZM79.5029 436.851C78.7464 436.851 78.1973 436.698 77.8555 436.393C77.5182 436.087 77.3496 435.584 77.3496 434.882V430.411H76.1875V429.427H77.3496V427.52H78.5801V429.427H80.1934V430.411H78.5801V434.581C78.5801 435.014 78.6621 435.326 78.8262 435.518C78.9902 435.704 79.2637 435.798 79.6465 435.798C79.7513 435.798 79.8402 435.796 79.9131 435.791C79.9906 435.786 80.084 435.78 80.1934 435.771V436.782C80.0794 436.8 79.9655 436.816 79.8516 436.83C79.7376 436.844 79.6214 436.851 79.5029 436.851ZM82.0391 436.796V426.501H83.2285V430.534H83.3379C83.5247 430.142 83.7936 429.839 84.1445 429.625C84.4954 429.406 84.9421 429.297 85.4844 429.297C86.0358 429.297 86.5029 429.404 86.8857 429.618C87.2686 429.828 87.5602 430.135 87.7607 430.541C87.9613 430.947 88.0615 431.441 88.0615 432.024V436.796H86.8721V432.312C86.8721 431.646 86.7308 431.154 86.4482 430.835C86.1702 430.511 85.7373 430.35 85.1494 430.35C84.7575 430.35 84.418 430.434 84.1309 430.603C83.8438 430.771 83.6204 431.01 83.4609 431.32C83.306 431.63 83.2285 432.002 83.2285 432.435V436.796H82.0391ZM98.3906 437.028C97.707 437.028 97.0895 436.908 96.5381 436.666C95.9912 436.424 95.5218 436.078 95.1299 435.627C94.7425 435.176 94.444 434.633 94.2344 434C94.0247 433.367 93.9199 432.656 93.9199 431.867V431.854C93.9199 430.814 94.1045 429.91 94.4736 429.14C94.8428 428.365 95.3623 427.766 96.0322 427.342C96.7067 426.913 97.4928 426.699 98.3906 426.699C99.1198 426.699 99.7692 426.829 100.339 427.089C100.913 427.344 101.385 427.704 101.754 428.169C102.128 428.634 102.378 429.178 102.506 429.803L102.52 429.871H101.275L101.255 429.803C101.054 429.165 100.71 428.677 100.223 428.34C99.735 428.003 99.1243 427.834 98.3906 427.834C97.7389 427.834 97.1715 428 96.6885 428.333C96.21 428.661 95.8385 429.126 95.5742 429.728C95.3099 430.329 95.1777 431.038 95.1777 431.854V431.867C95.1777 432.487 95.2507 433.045 95.3965 433.542C95.5469 434.039 95.7611 434.463 96.0391 434.813C96.3216 435.16 96.6611 435.426 97.0576 435.613C97.4541 435.8 97.9007 435.894 98.3975 435.894C98.9854 435.894 99.5003 435.777 99.9424 435.545C100.389 435.308 100.735 434.98 100.981 434.561C101.228 434.141 101.351 433.654 101.351 433.098V432.858H98.582V431.778H102.581V432.981C102.581 433.588 102.481 434.139 102.28 434.636C102.084 435.132 101.802 435.561 101.433 435.921C101.063 436.276 100.621 436.55 100.106 436.741C99.5915 436.933 99.0195 437.028 98.3906 437.028ZM107.64 436.926C106.942 436.926 106.339 436.773 105.828 436.468C105.322 436.158 104.93 435.718 104.652 435.148C104.379 434.579 104.242 433.902 104.242 433.118V433.104C104.242 432.316 104.379 431.637 104.652 431.067C104.93 430.498 105.322 430.06 105.828 429.755C106.339 429.45 106.942 429.297 107.64 429.297C108.341 429.297 108.945 429.45 109.451 429.755C109.957 430.06 110.347 430.498 110.62 431.067C110.898 431.637 111.037 432.316 111.037 433.104V433.118C111.037 433.902 110.898 434.579 110.62 435.148C110.347 435.718 109.957 436.158 109.451 436.468C108.945 436.773 108.341 436.926 107.64 436.926ZM107.64 435.873C108.104 435.873 108.499 435.764 108.822 435.545C109.146 435.326 109.392 435.012 109.561 434.602C109.734 434.191 109.82 433.697 109.82 433.118V433.104C109.82 432.521 109.734 432.024 109.561 431.614C109.392 431.204 109.146 430.892 108.822 430.678C108.499 430.459 108.104 430.35 107.64 430.35C107.175 430.35 106.781 430.459 106.457 430.678C106.133 430.892 105.885 431.204 105.712 431.614C105.543 432.024 105.459 432.521 105.459 433.104V433.118C105.459 433.697 105.543 434.191 105.712 434.602C105.885 435.012 106.133 435.326 106.457 435.545C106.781 435.764 107.175 435.873 107.64 435.873ZM115.911 436.926C115.214 436.926 114.61 436.773 114.1 436.468C113.594 436.158 113.202 435.718 112.924 435.148C112.65 434.579 112.514 433.902 112.514 433.118V433.104C112.514 432.316 112.65 431.637 112.924 431.067C113.202 430.498 113.594 430.06 114.1 429.755C114.61 429.45 115.214 429.297 115.911 429.297C116.613 429.297 117.217 429.45 117.723 429.755C118.229 430.06 118.618 430.498 118.892 431.067C119.17 431.637 119.309 432.316 119.309 433.104V433.118C119.309 433.902 119.17 434.579 118.892 435.148C118.618 435.718 118.229 436.158 117.723 436.468C117.217 436.773 116.613 436.926 115.911 436.926ZM115.911 435.873C116.376 435.873 116.77 435.764 117.094 435.545C117.417 435.326 117.663 435.012 117.832 434.602C118.005 434.191 118.092 433.697 118.092 433.118V433.104C118.092 432.521 118.005 432.024 117.832 431.614C117.663 431.204 117.417 430.892 117.094 430.678C116.77 430.459 116.376 430.35 115.911 430.35C115.446 430.35 115.052 430.459 114.729 430.678C114.405 430.892 114.157 431.204 113.983 431.614C113.815 432.024 113.73 432.521 113.73 433.104V433.118C113.73 433.697 113.815 434.191 113.983 434.602C114.157 435.012 114.405 435.326 114.729 435.545C115.052 435.764 115.446 435.873 115.911 435.873ZM124.189 439.394C123.597 439.394 123.08 439.309 122.638 439.141C122.196 438.977 121.842 438.742 121.578 438.437C121.318 438.136 121.157 437.785 121.093 437.384L121.106 437.377H122.337L122.344 437.384C122.408 437.662 122.599 437.89 122.918 438.067C123.237 438.25 123.661 438.341 124.189 438.341C124.85 438.341 125.365 438.19 125.734 437.89C126.108 437.593 126.295 437.174 126.295 436.632V435.142H126.186C126.031 435.41 125.837 435.641 125.604 435.832C125.372 436.023 125.11 436.169 124.818 436.27C124.527 436.365 124.212 436.413 123.875 436.413C123.242 436.413 122.692 436.263 122.228 435.962C121.767 435.657 121.412 435.237 121.161 434.704C120.91 434.171 120.785 433.56 120.785 432.872V432.858C120.785 432.17 120.91 431.56 121.161 431.026C121.416 430.489 121.776 430.067 122.241 429.762C122.706 429.452 123.26 429.297 123.902 429.297C124.249 429.297 124.568 429.352 124.859 429.461C125.151 429.57 125.409 429.725 125.632 429.926C125.86 430.126 126.049 430.366 126.199 430.644H126.281V429.427H127.471V436.693C127.471 437.24 127.336 437.716 127.067 438.122C126.803 438.528 126.425 438.84 125.933 439.059C125.44 439.282 124.859 439.394 124.189 439.394ZM124.135 435.36C124.59 435.36 124.98 435.256 125.304 435.046C125.632 434.832 125.882 434.538 126.056 434.164C126.233 433.79 126.322 433.36 126.322 432.872V432.858C126.322 432.371 126.233 431.938 126.056 431.56C125.882 431.181 125.632 430.885 125.304 430.671C124.98 430.457 124.59 430.35 124.135 430.35C123.679 430.35 123.292 430.457 122.973 430.671C122.658 430.885 122.417 431.181 122.248 431.56C122.084 431.938 122.002 432.371 122.002 432.858V432.872C122.002 433.36 122.084 433.79 122.248 434.164C122.417 434.538 122.658 434.832 122.973 435.046C123.292 435.256 123.679 435.36 124.135 435.36ZM129.754 436.796V426.501H130.943V436.796H129.754ZM136.234 436.926C135.533 436.926 134.929 436.771 134.423 436.461C133.922 436.151 133.534 435.714 133.261 435.148C132.992 434.579 132.857 433.909 132.857 433.139V433.132C132.857 432.371 132.992 431.703 133.261 431.129C133.534 430.555 133.919 430.106 134.416 429.782C134.913 429.459 135.494 429.297 136.159 429.297C136.829 429.297 137.403 429.452 137.882 429.762C138.365 430.072 138.734 430.505 138.989 431.061C139.249 431.612 139.379 432.255 139.379 432.988V433.453H133.473V432.503H138.771L138.183 433.371V432.899C138.183 432.321 138.096 431.844 137.923 431.471C137.75 431.097 137.51 430.819 137.205 430.637C136.9 430.45 136.549 430.356 136.152 430.356C135.756 430.356 135.4 430.454 135.086 430.65C134.776 430.842 134.53 431.127 134.348 431.505C134.165 431.883 134.074 432.348 134.074 432.899V433.371C134.074 433.895 134.163 434.344 134.341 434.718C134.519 435.087 134.771 435.372 135.1 435.572C135.428 435.768 135.815 435.866 136.262 435.866C136.594 435.866 136.884 435.821 137.13 435.729C137.376 435.638 137.579 435.522 137.738 435.381C137.898 435.24 138.009 435.096 138.073 434.95L138.101 434.889H139.29L139.276 434.943C139.213 435.194 139.099 435.438 138.935 435.675C138.775 435.907 138.568 436.119 138.312 436.311C138.057 436.497 137.754 436.648 137.403 436.762C137.057 436.871 136.667 436.926 136.234 436.926ZM147.356 436.796L144.67 426.932H145.955L147.917 434.95H147.999L150.207 426.932H151.451L153.659 434.95H153.741L155.703 426.932H156.988L154.302 436.796H153.14L150.87 429.01H150.788L148.519 436.796H147.356ZM161.056 436.926C160.358 436.926 159.755 436.773 159.244 436.468C158.738 436.158 158.346 435.718 158.068 435.148C157.795 434.579 157.658 433.902 157.658 433.118V433.104C157.658 432.316 157.795 431.637 158.068 431.067C158.346 430.498 158.738 430.06 159.244 429.755C159.755 429.45 160.358 429.297 161.056 429.297C161.757 429.297 162.361 429.45 162.867 429.755C163.373 430.06 163.763 430.498 164.036 431.067C164.314 431.637 164.453 432.316 164.453 433.104V433.118C164.453 433.902 164.314 434.579 164.036 435.148C163.763 435.718 163.373 436.158 162.867 436.468C162.361 436.773 161.757 436.926 161.056 436.926ZM161.056 435.873C161.521 435.873 161.915 435.764 162.238 435.545C162.562 435.326 162.808 435.012 162.977 434.602C163.15 434.191 163.236 433.697 163.236 433.118V433.104C163.236 432.521 163.15 432.024 162.977 431.614C162.808 431.204 162.562 430.892 162.238 430.678C161.915 430.459 161.521 430.35 161.056 430.35C160.591 430.35 160.197 430.459 159.873 430.678C159.549 430.892 159.301 431.204 159.128 431.614C158.959 432.024 158.875 432.521 158.875 433.104V433.118C158.875 433.697 158.959 434.191 159.128 434.602C159.301 435.012 159.549 435.326 159.873 435.545C160.197 435.764 160.591 435.873 161.056 435.873ZM166.299 436.796V429.427H167.488V430.521H167.598C167.739 430.133 167.978 429.832 168.315 429.618C168.653 429.404 169.07 429.297 169.566 429.297C169.68 429.297 169.792 429.304 169.901 429.317C170.015 429.326 170.102 429.336 170.161 429.345V430.5C170.038 430.477 169.917 430.461 169.799 430.452C169.685 430.438 169.562 430.432 169.43 430.432C169.051 430.432 168.716 430.507 168.425 430.657C168.133 430.808 167.903 431.017 167.734 431.286C167.57 431.555 167.488 431.869 167.488 432.229V436.796H166.299ZM171.699 436.796V426.501H172.889V436.796H171.699ZM176.341 436.796L173.463 433.187L174.338 432.428L177.838 436.796H176.341ZM172.738 434.144L172.684 432.646H172.998L176.184 429.427H177.626L174.126 432.804L173.839 433.084L172.738 434.144ZM181.488 436.926C180.941 436.926 180.458 436.844 180.039 436.68C179.62 436.511 179.283 436.276 179.027 435.976C178.777 435.675 178.629 435.322 178.583 434.916H179.8C179.9 435.221 180.096 435.467 180.388 435.654C180.679 435.841 181.06 435.935 181.529 435.935C181.862 435.935 182.154 435.887 182.404 435.791C182.66 435.691 182.86 435.556 183.006 435.388C183.152 435.215 183.225 435.016 183.225 434.793V434.779C183.225 434.529 183.124 434.317 182.924 434.144C182.723 433.966 182.395 433.822 181.939 433.713L180.798 433.439C180.338 433.33 179.959 433.189 179.663 433.016C179.367 432.838 179.148 432.621 179.007 432.366C178.866 432.106 178.795 431.801 178.795 431.45V431.443C178.795 431.033 178.913 430.666 179.15 430.343C179.392 430.019 179.72 429.764 180.135 429.577C180.549 429.39 181.017 429.297 181.536 429.297C182.051 429.297 182.507 429.379 182.903 429.543C183.304 429.702 183.626 429.93 183.867 430.227C184.113 430.523 184.264 430.871 184.318 431.272H183.149C183.072 430.981 182.894 430.744 182.616 430.562C182.338 430.379 181.976 430.288 181.529 430.288C181.238 430.288 180.978 430.336 180.75 430.432C180.522 430.523 180.342 430.65 180.21 430.814C180.078 430.979 180.012 431.17 180.012 431.389V431.402C180.012 431.566 180.055 431.712 180.142 431.84C180.228 431.967 180.363 432.079 180.545 432.175C180.727 432.271 180.962 432.355 181.249 432.428L182.384 432.701C183.076 432.87 183.591 433.111 183.929 433.426C184.271 433.74 184.441 434.162 184.441 434.69V434.704C184.441 435.142 184.312 435.529 184.052 435.866C183.792 436.199 183.439 436.459 182.992 436.646C182.55 436.832 182.049 436.926 181.488 436.926ZM186.287 439.257V429.427H187.477V430.603H187.586C187.736 430.329 187.925 430.097 188.153 429.905C188.381 429.709 188.641 429.559 188.933 429.454C189.224 429.349 189.541 429.297 189.883 429.297C190.507 429.297 191.049 429.456 191.51 429.775C191.975 430.09 192.335 430.532 192.59 431.102C192.845 431.671 192.973 432.339 192.973 433.104V433.118C192.973 433.888 192.845 434.558 192.59 435.128C192.335 435.698 191.975 436.14 191.51 436.454C191.049 436.769 190.507 436.926 189.883 436.926C189.546 436.926 189.227 436.873 188.926 436.769C188.63 436.659 188.365 436.509 188.133 436.317C187.905 436.126 187.723 435.898 187.586 435.634H187.477V439.257H186.287ZM189.609 435.873C190.061 435.873 190.446 435.764 190.765 435.545C191.084 435.322 191.327 435.005 191.496 434.595C191.669 434.18 191.756 433.688 191.756 433.118V433.104C191.756 432.53 191.669 432.038 191.496 431.628C191.327 431.218 191.084 430.903 190.765 430.685C190.446 430.461 190.061 430.35 189.609 430.35C189.163 430.35 188.778 430.461 188.454 430.685C188.131 430.908 187.882 431.225 187.709 431.635C187.536 432.045 187.449 432.535 187.449 433.104V433.118C187.449 433.683 187.536 434.173 187.709 434.588C187.882 434.998 188.131 435.315 188.454 435.538C188.778 435.761 189.163 435.873 189.609 435.873ZM196.855 436.926C196.391 436.926 195.971 436.837 195.598 436.659C195.229 436.481 194.935 436.229 194.716 435.9C194.502 435.572 194.395 435.185 194.395 434.738V434.725C194.395 434.287 194.499 433.913 194.709 433.604C194.919 433.289 195.224 433.043 195.625 432.865C196.026 432.688 196.511 432.583 197.081 432.551L199.788 432.387V433.337L197.225 433.501C196.664 433.533 196.254 433.649 195.994 433.85C195.739 434.05 195.611 434.333 195.611 434.697V434.711C195.611 435.085 195.753 435.376 196.035 435.586C196.318 435.791 196.673 435.894 197.102 435.894C197.507 435.894 197.867 435.814 198.182 435.654C198.496 435.49 198.742 435.269 198.92 434.991C199.102 434.713 199.193 434.399 199.193 434.048V431.751C199.193 431.295 199.054 430.949 198.776 430.712C198.503 430.47 198.09 430.35 197.539 430.35C197.097 430.35 196.735 430.429 196.452 430.589C196.17 430.744 195.98 430.965 195.885 431.252L195.878 431.272H194.688L194.695 431.231C194.759 430.844 194.919 430.507 195.174 430.22C195.434 429.928 195.769 429.702 196.179 429.543C196.589 429.379 197.056 429.297 197.58 429.297C198.182 429.297 198.69 429.395 199.104 429.591C199.524 429.787 199.84 430.069 200.055 430.438C200.273 430.803 200.383 431.241 200.383 431.751V436.796H199.193V435.709H199.084C198.929 435.969 198.74 436.19 198.517 436.372C198.298 436.554 198.049 436.693 197.771 436.789C197.493 436.88 197.188 436.926 196.855 436.926ZM205.571 436.926C204.883 436.926 204.286 436.769 203.78 436.454C203.274 436.14 202.882 435.695 202.604 435.121C202.326 434.547 202.188 433.87 202.188 433.091V433.077C202.188 432.312 202.324 431.646 202.598 431.081C202.876 430.516 203.268 430.078 203.773 429.769C204.279 429.454 204.876 429.297 205.564 429.297C206.161 429.297 206.676 429.402 207.109 429.611C207.542 429.821 207.889 430.104 208.148 430.459C208.408 430.81 208.575 431.204 208.647 431.642L208.654 431.683H207.472L207.465 431.662C207.374 431.298 207.166 430.988 206.843 430.732C206.519 430.477 206.093 430.35 205.564 430.35C205.122 430.35 204.74 430.461 204.416 430.685C204.092 430.908 203.842 431.225 203.664 431.635C203.491 432.04 203.404 432.521 203.404 433.077V433.091C203.404 433.656 203.493 434.148 203.671 434.567C203.849 434.982 204.099 435.303 204.423 435.531C204.746 435.759 205.127 435.873 205.564 435.873C206.061 435.873 206.467 435.766 206.781 435.552C207.096 435.338 207.321 435.025 207.458 434.615L207.472 434.574L208.647 434.567L208.634 434.643C208.534 435.085 208.356 435.479 208.101 435.825C207.845 436.167 207.508 436.436 207.089 436.632C206.67 436.828 206.164 436.926 205.571 436.926ZM213.398 436.926C212.697 436.926 212.093 436.771 211.587 436.461C211.086 436.151 210.698 435.714 210.425 435.148C210.156 434.579 210.021 433.909 210.021 433.139V433.132C210.021 432.371 210.156 431.703 210.425 431.129C210.698 430.555 211.083 430.106 211.58 429.782C212.077 429.459 212.658 429.297 213.323 429.297C213.993 429.297 214.567 429.452 215.046 429.762C215.529 430.072 215.898 430.505 216.153 431.061C216.413 431.612 216.543 432.255 216.543 432.988V433.453H210.637V432.503H215.935L215.347 433.371V432.899C215.347 432.321 215.26 431.844 215.087 431.471C214.914 431.097 214.674 430.819 214.369 430.637C214.064 430.45 213.713 430.356 213.316 430.356C212.92 430.356 212.564 430.454 212.25 430.65C211.94 430.842 211.694 431.127 211.512 431.505C211.329 431.883 211.238 432.348 211.238 432.899V433.371C211.238 433.895 211.327 434.344 211.505 434.718C211.683 435.087 211.936 435.372 212.264 435.572C212.592 435.768 212.979 435.866 213.426 435.866C213.758 435.866 214.048 435.821 214.294 435.729C214.54 435.638 214.743 435.522 214.902 435.381C215.062 435.24 215.174 435.096 215.237 434.95L215.265 434.889H216.454L216.44 434.943C216.377 435.194 216.263 435.438 216.099 435.675C215.939 435.907 215.732 436.119 215.477 436.311C215.221 436.497 214.918 436.648 214.567 436.762C214.221 436.871 213.831 436.926 213.398 436.926ZM224.35 436.926C223.885 436.926 223.465 436.837 223.092 436.659C222.723 436.481 222.429 436.229 222.21 435.9C221.996 435.572 221.889 435.185 221.889 434.738V434.725C221.889 434.287 221.993 433.913 222.203 433.604C222.413 433.289 222.718 433.043 223.119 432.865C223.52 432.688 224.006 432.583 224.575 432.551L227.282 432.387V433.337L224.719 433.501C224.158 433.533 223.748 433.649 223.488 433.85C223.233 434.05 223.105 434.333 223.105 434.697V434.711C223.105 435.085 223.247 435.376 223.529 435.586C223.812 435.791 224.167 435.894 224.596 435.894C225.001 435.894 225.361 435.814 225.676 435.654C225.99 435.49 226.236 435.269 226.414 434.991C226.596 434.713 226.688 434.399 226.688 434.048V431.751C226.688 431.295 226.549 430.949 226.271 430.712C225.997 430.47 225.585 430.35 225.033 430.35C224.591 430.35 224.229 430.429 223.946 430.589C223.664 430.744 223.475 430.965 223.379 431.252L223.372 431.272H222.183L222.189 431.231C222.253 430.844 222.413 430.507 222.668 430.22C222.928 429.928 223.263 429.702 223.673 429.543C224.083 429.379 224.55 429.297 225.074 429.297C225.676 429.297 226.184 429.395 226.599 429.591C227.018 429.787 227.335 430.069 227.549 430.438C227.768 430.803 227.877 431.241 227.877 431.751V436.796H226.688V435.709H226.578C226.423 435.969 226.234 436.19 226.011 436.372C225.792 436.554 225.544 436.693 225.266 436.789C224.988 436.88 224.682 436.926 224.35 436.926ZM230.051 436.796V429.427H231.24V430.534H231.35C231.536 430.142 231.805 429.839 232.156 429.625C232.507 429.406 232.954 429.297 233.496 429.297C234.326 429.297 234.961 429.534 235.403 430.008C235.85 430.477 236.073 431.149 236.073 432.024V436.796H234.884V432.312C234.884 431.646 234.743 431.154 234.46 430.835C234.182 430.511 233.749 430.35 233.161 430.35C232.769 430.35 232.43 430.434 232.143 430.603C231.855 430.771 231.632 431.01 231.473 431.32C231.318 431.63 231.24 432.002 231.24 432.435V436.796H230.051ZM240.947 436.926C240.327 436.926 239.785 436.769 239.32 436.454C238.855 436.14 238.495 435.698 238.24 435.128C237.985 434.554 237.857 433.884 237.857 433.118V433.104C237.857 432.334 237.985 431.664 238.24 431.095C238.495 430.525 238.853 430.083 239.313 429.769C239.778 429.454 240.323 429.297 240.947 429.297C241.285 429.297 241.601 429.352 241.897 429.461C242.198 429.566 242.465 429.714 242.697 429.905C242.93 430.097 243.112 430.325 243.244 430.589H243.354V426.501H244.543V436.796H243.354V435.62H243.244C243.094 435.894 242.905 436.128 242.677 436.324C242.449 436.516 242.189 436.664 241.897 436.769C241.606 436.873 241.289 436.926 240.947 436.926ZM241.221 435.873C241.667 435.873 242.052 435.761 242.376 435.538C242.7 435.315 242.948 434.998 243.121 434.588C243.294 434.173 243.381 433.683 243.381 433.118V433.104C243.381 432.535 243.294 432.045 243.121 431.635C242.948 431.225 242.7 430.908 242.376 430.685C242.052 430.461 241.667 430.35 241.221 430.35C240.774 430.35 240.389 430.461 240.065 430.685C239.746 430.903 239.5 431.218 239.327 431.628C239.159 432.038 239.074 432.53 239.074 433.104V433.118C239.074 433.688 239.159 434.18 239.327 434.595C239.5 435.005 239.746 435.322 240.065 435.545C240.389 435.764 240.774 435.873 241.221 435.873ZM254.147 437.028C253.427 437.028 252.799 436.912 252.261 436.68C251.728 436.443 251.304 436.119 250.989 435.709C250.679 435.294 250.499 434.82 250.449 434.287L250.442 434.212H251.673L251.68 434.287C251.712 434.615 251.837 434.9 252.056 435.142C252.279 435.379 252.575 435.563 252.944 435.695C253.318 435.827 253.742 435.894 254.216 435.894C254.662 435.894 255.059 435.823 255.405 435.682C255.756 435.536 256.032 435.335 256.232 435.08C256.433 434.825 256.533 434.531 256.533 434.198V434.191C256.533 433.781 256.383 433.437 256.082 433.159C255.781 432.877 255.291 432.66 254.612 432.51L253.519 432.271C252.53 432.052 251.81 431.715 251.358 431.259C250.912 430.799 250.688 430.211 250.688 429.495V429.488C250.693 428.941 250.841 428.458 251.133 428.039C251.429 427.62 251.837 427.292 252.356 427.055C252.881 426.818 253.482 426.699 254.161 426.699C254.817 426.699 255.398 426.818 255.904 427.055C256.41 427.287 256.811 427.602 257.107 427.998C257.408 428.395 257.575 428.839 257.606 429.331L257.613 429.427H256.383L256.369 429.338C256.324 429.046 256.205 428.789 256.014 428.565C255.822 428.338 255.567 428.158 255.248 428.025C254.929 427.893 254.555 427.829 254.127 427.834C253.717 427.834 253.348 427.898 253.02 428.025C252.691 428.153 252.429 428.338 252.233 428.579C252.042 428.816 251.946 429.108 251.946 429.454V429.461C251.946 429.853 252.092 430.183 252.384 430.452C252.675 430.721 253.156 430.928 253.826 431.074L254.92 431.32C255.608 431.471 256.162 431.667 256.581 431.908C257 432.15 257.306 432.446 257.497 432.797C257.693 433.143 257.791 433.553 257.791 434.027V434.034C257.791 434.649 257.641 435.18 257.34 435.627C257.039 436.074 256.615 436.42 256.068 436.666C255.521 436.908 254.881 437.028 254.147 437.028ZM259.76 436.796V426.501H260.949V436.796H259.76ZM265.256 436.926C264.791 436.926 264.372 436.837 263.998 436.659C263.629 436.481 263.335 436.229 263.116 435.9C262.902 435.572 262.795 435.185 262.795 434.738V434.725C262.795 434.287 262.9 433.913 263.109 433.604C263.319 433.289 263.624 433.043 264.025 432.865C264.426 432.688 264.912 432.583 265.481 432.551L268.188 432.387V433.337L265.625 433.501C265.064 433.533 264.654 433.649 264.395 433.85C264.139 434.05 264.012 434.333 264.012 434.697V434.711C264.012 435.085 264.153 435.376 264.436 435.586C264.718 435.791 265.074 435.894 265.502 435.894C265.908 435.894 266.268 435.814 266.582 435.654C266.896 435.49 267.143 435.269 267.32 434.991C267.503 434.713 267.594 434.399 267.594 434.048V431.751C267.594 431.295 267.455 430.949 267.177 430.712C266.903 430.47 266.491 430.35 265.939 430.35C265.497 430.35 265.135 430.429 264.853 430.589C264.57 430.744 264.381 430.965 264.285 431.252L264.278 431.272H263.089L263.096 431.231C263.16 430.844 263.319 430.507 263.574 430.22C263.834 429.928 264.169 429.702 264.579 429.543C264.989 429.379 265.456 429.297 265.98 429.297C266.582 429.297 267.09 429.395 267.505 429.591C267.924 429.787 268.241 430.069 268.455 430.438C268.674 430.803 268.783 431.241 268.783 431.751V436.796H267.594V435.709H267.484C267.329 435.969 267.14 436.19 266.917 436.372C266.698 436.554 266.45 436.693 266.172 436.789C265.894 436.88 265.589 436.926 265.256 436.926ZM273.972 436.926C273.284 436.926 272.687 436.769 272.181 436.454C271.675 436.14 271.283 435.695 271.005 435.121C270.727 434.547 270.588 433.87 270.588 433.091V433.077C270.588 432.312 270.725 431.646 270.998 431.081C271.276 430.516 271.668 430.078 272.174 429.769C272.68 429.454 273.277 429.297 273.965 429.297C274.562 429.297 275.077 429.402 275.51 429.611C275.943 429.821 276.289 430.104 276.549 430.459C276.809 430.81 276.975 431.204 277.048 431.642L277.055 431.683H275.872L275.865 431.662C275.774 431.298 275.567 430.988 275.243 430.732C274.92 430.477 274.493 430.35 273.965 430.35C273.523 430.35 273.14 430.461 272.816 430.685C272.493 430.908 272.242 431.225 272.064 431.635C271.891 432.04 271.805 432.521 271.805 433.077V433.091C271.805 433.656 271.894 434.148 272.071 434.567C272.249 434.982 272.5 435.303 272.823 435.531C273.147 435.759 273.527 435.873 273.965 435.873C274.462 435.873 274.867 435.766 275.182 435.552C275.496 435.338 275.722 435.025 275.858 434.615L275.872 434.574L277.048 434.567L277.034 434.643C276.934 435.085 276.756 435.479 276.501 435.825C276.246 436.167 275.909 436.436 275.489 436.632C275.07 436.828 274.564 436.926 273.972 436.926ZM278.859 436.796V426.501H280.049V436.796H278.859ZM283.501 436.796L280.623 433.187L281.498 432.428L284.998 436.796H283.501ZM279.898 434.144L279.844 432.646H280.158L283.344 429.427H284.786L281.286 432.804L280.999 433.084L279.898 434.144ZM287.363 436.864C287.122 436.864 286.912 436.778 286.734 436.604C286.561 436.427 286.475 436.217 286.475 435.976C286.475 435.729 286.561 435.52 286.734 435.347C286.912 435.174 287.122 435.087 287.363 435.087C287.609 435.087 287.819 435.174 287.992 435.347C288.165 435.52 288.252 435.729 288.252 435.976C288.252 436.217 288.165 436.427 287.992 436.604C287.819 436.778 287.609 436.864 287.363 436.864Z" fill="#868B92"/>
<defs>
<radialGradient id="paint0_radial_1011_2045" cx="0" cy="0" r="1" gradientUnits="userSpaceOnUse" gradientTransform="translate(625.868 190.898) scale(34.1817)">
<stop stop-color="#FF5702" stop-opacity="0.35"/>
<stop offset="1" stop-color="#FF5702" stop-opacity="0"/>
</radialGradient>
<radialGradient id="paint1_radial_1011_2045" cx="0" cy="0" r="1" gradientUnits="userSpaceOnUse" gradientTransform="translate(551.658 79.6435) rotate(-30) scale(34.1817)">
<stop stop-color="#FF5702" stop-opacity="0.35"/>
<stop offset="1" stop-color="#FF5702" stop-opacity="0"/>
</radialGradient>
<radialGradient id="paint2_radial_1011_2045" cx="0" cy="0" r="1" gradientUnits="userSpaceOnUse" gradientTransform="translate(532.717 301.832) rotate(34.4285) scale(34.1817)">
<stop stop-color="#FF5702" stop-opacity="0.35"/>
<stop offset="1" stop-color="#FF5702" stop-opacity="0"/>
</radialGradient>
<radialGradient id="paint3_radial_1011_2045" cx="0" cy="0" r="1" gradientUnits="userSpaceOnUse" gradientTransform="translate(135.932 190.899) scale(34.1817)">
<stop stop-color="#FF5702" stop-opacity="0.35"/>
<stop offset="1" stop-color="#FF5702" stop-opacity="0"/>
</radialGradient>
<radialGradient id="paint4_radial_1011_2045" cx="0" cy="0" r="1" gradientUnits="userSpaceOnUse" gradientTransform="translate(239.253 82.0061) rotate(36.0095) scale(34.1817)">
<stop stop-color="#FF5702" stop-opacity="0.35"/>
<stop offset="1" stop-color="#FF5702" stop-opacity="0"/>
</radialGradient>
<linearGradient id="paint5_linear_1011_2045" x1="232.516" y1="87.2397" x2="238.183" y2="82.2814" gradientUnits="userSpaceOnUse">
<stop stop-color="#08B962"/>
<stop offset="1" stop-color="#08B962" stop-opacity="0"/>
</linearGradient>
<linearGradient id="paint6_linear_1011_2045" x1="233.933" y1="73.073" x2="238.891" y2="80.8647" gradientUnits="userSpaceOnUse">
<stop stop-color="#F94543"/>
<stop offset="1" stop-color="#F94543" stop-opacity="0"/>
</linearGradient>
<linearGradient id="paint7_linear_1011_2045" x1="227.558" y1="84.4064" x2="247.391" y2="82.2814" gradientUnits="userSpaceOnUse">
<stop stop-color="#FABC12"/>
<stop offset="0.46" stop-color="#FABC12" stop-opacity="0"/>
</linearGradient>
<radialGradient id="paint8_radial_1011_2045" cx="0" cy="0" r="1" gradientUnits="userSpaceOnUse" gradientTransform="translate(213.293 297.886) rotate(-30) scale(34.1817)">
<stop stop-color="#FF5702" stop-opacity="0.35"/>
<stop offset="1" stop-color="#FF5702" stop-opacity="0"/>
</radialGradient>
<radialGradient id="paint9_radial_1011_2045" cx="0" cy="0" r="1" gradientUnits="userSpaceOnUse" gradientTransform="translate(377.1 190.95) scale(148.5 114)">
<stop stop-color="#F4620A" stop-opacity="0.18"/>
<stop offset="1" stop-color="#F4620A" stop-opacity="0"/>
</radialGradient>
<radialGradient id="paint10_radial_1011_2045" cx="0" cy="0" r="1" gradientUnits="userSpaceOnUse" gradientTransform="translate(380.824 57.4062) rotate(-90) scale(34.1817)">
<stop stop-color="#FF5702" stop-opacity="0.35"/>
<stop offset="1" stop-color="#FF5702" stop-opacity="0"/>
</radialGradient>
<radialGradient id="paint11_radial_1011_2045" cx="0" cy="0" r="1" gradientUnits="userSpaceOnUse" gradientTransform="translate(380.824 324.768) rotate(90) scale(34.1817)">
<stop stop-color="#FF5702" stop-opacity="0.35"/>
<stop offset="1" stop-color="#FF5702" stop-opacity="0"/>
</radialGradient>
<clipPath id="clip0_1011_2045">
<rect width="759.6" height="379.796" fill="white" transform="translate(1 1)"/>
</clipPath>
<clipPath id="clip1_1011_2045">
<rect width="34" height="34" fill="white" transform="translate(608.801 173.95)"/>
</clipPath>
<clipPath id="clip2_1011_2045">
<rect width="37" height="37" fill="white" transform="translate(526.537 72.2676) rotate(-30)"/>
</clipPath>
<clipPath id="clip3_1011_2045">
<rect width="34" height="34" fill="white" transform="translate(119.15 173.767)"/>
</clipPath>
<clipPath id="clip4_1011_2045">
<rect width="34" height="34" fill="white" transform="translate(363.6 307.701)"/>
</clipPath>
</defs>
</svg>
