<svg width="83" height="32" viewBox="0 0 83 32" fill="none" xmlns="http://www.w3.org/2000/svg">
<path d="M17.8745 1.54361C20.3036 1.85727 22.5212 2.75649 24.3997 4.08302C22.9773 4.63492 21.9069 5.9441 21.7391 7.56602C21.6857 8.08268 21.7291 8.58684 21.8535 9.0613C20.5082 7.92456 18.8191 7.16584 16.935 6.97087C11.9483 6.45508 7.48716 10.0792 6.97105 15.0657C6.45518 20.0524 10.0799 24.5138 15.0668 25.0298C20.0537 25.5455 24.5141 21.9205 25.03 16.9339C25.2226 15.0708 24.8368 13.2816 24.0186 11.7436C24.4639 11.9692 24.9569 12.1195 25.4831 12.174C27.0955 12.3407 28.5876 11.5707 29.4219 10.3047C30.3563 12.5009 30.7637 14.9577 30.5008 17.4998C29.6723 25.5079 22.5091 31.3288 14.5009 30.5006L14.1264 30.4569C6.31186 29.4476 0.684762 22.3827 1.50024 14.4998C2.32893 6.4918 9.49285 0.671725 17.501 1.50006L17.8745 1.54361Z" fill="#FF5702"/>
<path d="M25.5495 5.20423L26.4687 7.28673L28.648 7.94452L26.5655 8.86371L25.9077 11.0429L24.9885 8.96044L22.8092 8.30266L24.8917 7.38346L25.5495 5.20423Z" fill="white"/>
<path d="M27.7719 4.5992L28.1249 5.39893L28.9618 5.65154L28.162 6.00453L27.9094 6.84141L27.5564 6.04168L26.7195 5.78907L27.5193 5.43608L27.7719 4.5992Z" fill="white"/>
<path d="M80.4961 23.3602V13.0562H81.988V23.3602H80.4961ZM81.252 10.5896C80.9603 10.5896 80.7083 10.4902 80.4961 10.2912C80.2972 10.0923 80.1978 9.82709 80.1978 9.49555C80.1978 9.17728 80.2972 8.91869 80.4961 8.71977C80.7083 8.52085 80.9603 8.42139 81.252 8.42139C81.5438 8.42139 81.7891 8.52085 81.988 8.71977C82.2002 8.91869 82.3063 9.17728 82.3063 9.49555C82.3063 9.82709 82.2002 10.0923 81.988 10.2912C81.7891 10.4902 81.5438 10.5896 81.252 10.5896Z" fill="white"/>
<path d="M63.3233 23.3601V13.4142C63.7344 13.3081 64.2582 13.1887 64.8948 13.0561C65.5313 12.9235 66.3204 12.8572 67.262 12.8572C67.925 12.8572 68.4886 12.95 68.9528 13.1357C69.4302 13.3213 69.8148 13.5998 70.1065 13.9711C70.2259 13.8783 70.4381 13.7457 70.7431 13.5733C71.0481 13.3876 71.4327 13.2219 71.8968 13.076C72.3742 12.9301 72.9113 12.8572 73.5081 12.8572C74.569 12.8572 75.3647 13.0627 75.8952 13.4738C76.4389 13.8717 76.8036 14.4286 76.9892 15.1448C77.1749 15.8476 77.2677 16.6632 77.2677 17.5915V23.3601H75.7758V18.0092C75.7758 17.1339 75.7161 16.4178 75.5968 15.8609C75.4774 15.2906 75.2453 14.8663 74.9005 14.5878C74.5557 14.3093 74.0452 14.17 73.3688 14.17C72.8782 14.17 72.4472 14.2297 72.0759 14.3491C71.7178 14.4552 71.4194 14.5811 71.1807 14.727C70.9553 14.8729 70.7895 14.9856 70.6834 15.0652C70.8028 15.3967 70.889 15.7747 70.942 16.199C71.0083 16.6234 71.0415 17.0676 71.0415 17.5318V23.3601H69.5496V18.0092C69.5496 17.1339 69.4899 16.4178 69.3705 15.8609C69.2512 15.2906 69.0125 14.8663 68.6544 14.5878C68.3096 14.3093 67.7858 14.17 67.0829 14.17C66.6983 14.17 66.3469 14.1899 66.0286 14.2297C65.7236 14.2562 65.465 14.2894 65.2528 14.3292C65.0539 14.369 64.908 14.4021 64.8152 14.4286V23.3601H63.3233Z" fill="white"/>
<path d="M56.2283 23.5792C55.4856 23.5792 54.8226 23.4731 54.2391 23.2609C53.6556 23.0487 53.198 22.7039 52.8665 22.2265C52.535 21.7491 52.3692 21.1192 52.3692 20.3368C52.3692 19.5809 52.5549 18.9709 52.9262 18.5067C53.2975 18.0293 53.8081 17.6845 54.4579 17.4723C55.121 17.2602 55.8636 17.1541 56.6858 17.1541C57.0571 17.1541 57.4483 17.1872 57.8594 17.2535C58.2705 17.3198 58.5291 17.3795 58.6352 17.4326V16.8358C58.6352 16.3849 58.5756 15.9539 58.4562 15.5428C58.3501 15.1185 58.1247 14.7737 57.7799 14.5084C57.4351 14.2432 56.9112 14.1106 56.2084 14.1106C55.479 14.1106 54.922 14.1636 54.5374 14.2697C54.1529 14.3758 53.8677 14.462 53.6821 14.5283L53.4832 13.2553C53.7219 13.1492 54.0866 13.0497 54.5772 12.9569C55.0679 12.864 55.6448 12.8176 56.3079 12.8176C57.2494 12.8176 57.9921 12.9834 58.5358 13.3149C59.0928 13.6465 59.4906 14.104 59.7293 14.6875C59.9813 15.2577 60.1073 15.9141 60.1073 16.6568V23.1217C59.8288 23.188 59.3315 23.2808 58.6153 23.4001C57.8992 23.5195 57.1035 23.5792 56.2283 23.5792ZM56.4471 22.3061C56.9112 22.3061 57.329 22.2928 57.7003 22.2663C58.0716 22.2265 58.3833 22.1801 58.6352 22.1271V18.6659C58.5026 18.5996 58.2772 18.5333 57.9589 18.4669C57.6406 18.4006 57.2295 18.3675 56.7256 18.3675C56.3012 18.3675 55.8702 18.4139 55.4326 18.5067C54.995 18.5996 54.6236 18.7852 54.3186 19.0637C54.0269 19.3422 53.881 19.7599 53.881 20.3169C53.881 21.0595 54.1131 21.5767 54.5772 21.8685C55.0414 22.1602 55.6647 22.3061 56.4471 22.3061Z" fill="white"/>
<path d="M46.011 23.5792C45.2684 23.5792 44.6053 23.4731 44.0218 23.2609C43.4383 23.0487 42.9808 22.7039 42.6492 22.2265C42.3177 21.7491 42.1519 21.1192 42.1519 20.3368C42.1519 19.5809 42.3376 18.9709 42.7089 18.5067C43.0802 18.0293 43.5908 17.6845 44.2406 17.4723C44.9037 17.2602 45.6463 17.1541 46.4685 17.1541C46.8398 17.1541 47.231 17.1872 47.6422 17.2535C48.0533 17.3198 48.3119 17.3795 48.4179 17.4326V16.8358C48.4179 16.3849 48.3583 15.9539 48.2389 15.5428C48.1328 15.1185 47.9074 14.7737 47.5626 14.5084C47.2178 14.2432 46.694 14.1106 45.9911 14.1106C45.2617 14.1106 44.7047 14.1636 44.3202 14.2697C43.9356 14.3758 43.6505 14.462 43.4648 14.5283L43.2659 13.2553C43.5046 13.1492 43.8693 13.0497 44.3599 12.9569C44.8506 12.864 45.4275 12.8176 46.0906 12.8176C47.0321 12.8176 47.7748 12.9834 48.3185 13.3149C48.8755 13.6465 49.2733 14.104 49.512 14.6875C49.764 15.2577 49.89 15.9141 49.89 16.6568V23.1217C49.6115 23.188 49.1142 23.2808 48.3981 23.4001C47.6819 23.5195 46.8863 23.5792 46.011 23.5792ZM46.2298 22.3061C46.694 22.3061 47.1117 22.2928 47.483 22.2663C47.8543 22.2265 48.166 22.1801 48.4179 22.1271V18.6659C48.2853 18.5996 48.0599 18.5333 47.7416 18.4669C47.4233 18.4006 47.0122 18.3675 46.5083 18.3675C46.0839 18.3675 45.6529 18.4139 45.2153 18.5067C44.7777 18.5996 44.4064 18.7852 44.1013 19.0637C43.8096 19.3422 43.6637 19.7599 43.6637 20.3169C43.6637 21.0595 43.8958 21.5767 44.3599 21.8685C44.8241 22.1602 45.4474 22.3061 46.2298 22.3061Z" fill="white"/>
<path d="M35.3698 23.3601V13.5335C35.7145 13.3876 36.1853 13.2418 36.7821 13.0959C37.3921 12.9367 38.1215 12.8572 38.9702 12.8572C39.2487 12.8572 39.5206 12.8771 39.7858 12.9169C40.0643 12.9434 40.3096 12.9832 40.5218 13.0362C40.7473 13.076 40.913 13.1158 41.0191 13.1556L40.7207 14.4286C40.6014 14.3756 40.3759 14.3226 40.0444 14.2695C39.7129 14.2032 39.2885 14.17 38.7713 14.17C38.2674 14.17 37.8496 14.2098 37.5181 14.2894C37.1866 14.3557 36.9678 14.4154 36.8617 14.4684V23.3601H35.3698Z" fill="white"/>
</svg>
