<svg width="32" height="32" viewBox="0 0 32 32" fill="none" xmlns="http://www.w3.org/2000/svg">
<path d="M17.8743 1.54361C20.3035 1.85727 22.521 2.75649 24.3996 4.08302C22.9772 4.63492 21.9068 5.9441 21.739 7.56602C21.6856 8.08268 21.729 8.58684 21.8533 9.0613C20.5081 7.92456 18.819 7.16584 16.9349 6.97087C11.9482 6.45508 7.48703 10.0792 6.97093 15.0657C6.45506 20.0524 10.0798 24.5138 15.0667 25.0298C20.0536 25.5455 24.514 21.9205 25.0298 16.9339C25.2225 15.0708 24.8367 13.2816 24.0185 11.7436C24.4638 11.9692 24.9568 12.1195 25.483 12.174C27.0954 12.3407 28.5875 11.5707 29.4218 10.3047C30.3561 12.5009 30.7635 14.9577 30.5006 17.4998C29.6722 25.5079 22.509 31.3288 14.5008 30.5006L14.1263 30.4569C6.31173 29.4476 0.68464 22.3827 1.50012 14.4998C2.3288 6.4918 9.49272 0.671725 17.5009 1.50006L17.8743 1.54361Z" fill="#FF5702"/>
<path d="M25.5494 5.20423L26.4686 7.28673L28.6479 7.94452L26.5653 8.86371L25.9075 11.0429L24.9883 8.96044L22.8091 8.30266L24.8916 7.38346L25.5494 5.20423Z" fill="white"/>
<path d="M27.7718 4.5992L28.1248 5.39893L28.9616 5.65154L28.1619 6.00453L27.9093 6.84141L27.5563 6.04168L26.7194 5.78907L27.5191 5.43608L27.7718 4.5992Z" fill="white"/>
</svg>
